<svg width="280" height="106" viewBox="0 0 280 106" fill="none" xmlns="http://www.w3.org/2000/svg">
<path d="M154.585 30.9V79H145.485V30.9H154.585Z" fill="#1F1845"/>
<path d="M179.566 79.585C176.099 79.585 172.979 78.8267 170.206 77.31C167.432 75.75 165.244 73.5617 163.641 70.745C162.081 67.9283 161.301 64.6783 161.301 60.995C161.301 57.3117 162.102 54.0617 163.706 51.245C165.352 48.4283 167.584 46.2617 170.401 44.745C173.217 43.185 176.359 42.405 179.826 42.405C183.292 42.405 186.434 43.185 189.251 44.745C192.067 46.2617 194.277 48.4283 195.881 51.245C197.527 54.0617 198.351 57.3117 198.351 60.995C198.351 64.6783 197.506 67.9283 195.816 70.745C194.169 73.5617 191.916 75.75 189.056 77.31C186.239 78.8267 183.076 79.585 179.566 79.585ZM179.566 71.655C181.212 71.655 182.751 71.265 184.181 70.485C185.654 69.6617 186.824 68.4483 187.691 66.845C188.557 65.2417 188.991 63.2917 188.991 60.995C188.991 57.5717 188.081 54.95 186.261 53.13C184.484 51.2667 182.296 50.335 179.696 50.335C177.096 50.335 174.907 51.2667 173.131 53.13C171.397 54.95 170.531 57.5717 170.531 60.995C170.531 64.4183 171.376 67.0617 173.066 68.925C174.799 70.745 176.966 71.655 179.566 71.655Z" fill="#1F1845"/>
<path d="M220.041 70.615L229.141 42.99H238.826L225.501 79H214.451L201.191 42.99H210.941L220.041 70.615Z" fill="#1F1845"/>
<path d="M241.597 60.865C241.597 57.225 242.312 53.9967 243.742 51.18C245.215 48.3633 247.187 46.1967 249.657 44.68C252.17 43.1633 254.965 42.405 258.042 42.405C260.729 42.405 263.069 42.9467 265.062 44.03C267.099 45.1133 268.724 46.4783 269.937 48.125V42.99H279.102V79H269.937V73.735C268.767 75.425 267.142 76.8333 265.062 77.96C263.025 79.0433 260.664 79.585 257.977 79.585C254.944 79.585 252.17 78.805 249.657 77.245C247.187 75.685 245.215 73.4967 243.742 70.68C242.312 67.82 241.597 64.5483 241.597 60.865ZM269.937 60.995C269.937 58.785 269.504 56.9 268.637 55.34C267.77 53.7367 266.6 52.5233 265.127 51.7C263.654 50.8333 262.072 50.4 260.382 50.4C258.692 50.4 257.132 50.8117 255.702 51.635C254.272 52.4583 253.102 53.6717 252.192 55.275C251.325 56.835 250.892 58.6983 250.892 60.865C250.892 63.0317 251.325 64.9383 252.192 66.585C253.102 68.1883 254.272 69.4233 255.702 70.29C257.175 71.1567 258.735 71.59 260.382 71.59C262.072 71.59 263.654 71.1783 265.127 70.355C266.6 69.4883 267.77 68.275 268.637 66.715C269.504 65.1117 269.937 63.205 269.937 60.995Z" fill="#1F1845"/>
<path fill-rule="evenodd" clip-rule="evenodd" d="M103.945 51.6188C110.584 44.9799 110.584 34.2161 103.945 27.5772C97.3058 20.9383 86.542 20.9383 79.9031 27.5772L41.7193 65.7609L65.7609 89.8026L103.945 51.6188ZM26.163 65.7609L72.1249 19.799C83.0596 8.86431 100.788 8.86431 111.723 19.799C122.658 30.7337 122.658 48.4623 111.723 59.397L65.7609 105.359L26.163 65.7609Z" fill="#7DD7FF"/>
<path d="M59.397 19.799C70.3316 30.7337 105.359 65.761 105.359 65.761L65.7609 105.359C65.7609 105.359 24.5677 64.1657 19.799 59.397C8.86431 48.4623 8.86431 30.7337 19.799 19.799C30.7337 8.86435 48.4623 8.86435 59.397 19.799Z" fill="url(#paint0_linear_102_16)"/>
<defs>
<linearGradient id="paint0_linear_102_16" x1="19.799" y1="19.799" x2="65.7609" y2="105.359" gradientUnits="userSpaceOnUse">
<stop stop-color="#8BCEF5"/>
<stop offset="1" stop-color="#6C4DDF"/>
</linearGradient>
</defs>
</svg>
