<svg width="637" height="242" viewBox="0 0 637 242" fill="none" xmlns="http://www.w3.org/2000/svg">
<path d="M105.26 2.44717C93.8434 6.15659 83.943 16.057 64.1421 35.8579L35.8579 64.1421C16.057 83.943 6.15659 93.8434 2.44717 105.26C-0.815725 115.302 -0.815724 126.119 2.44717 136.162C6.1566 147.578 16.057 157.478 35.8579 177.279L64.1421 205.563C83.943 225.364 93.8434 235.265 105.26 238.974C115.302 242.237 126.119 242.237 136.162 238.974C145.212 236.033 154.544 227.968 167.888 214.886C171.851 211.001 173.833 209.058 174.595 206.765C175.262 204.761 175.273 202.558 174.626 200.547C173.886 198.247 171.9 196.26 167.927 192.288L144.977 169.338C144.032 168.392 143.559 167.92 143.117 167.567C139.471 164.665 134.305 164.665 130.66 167.567C130.217 167.92 129.745 168.392 128.8 169.338C127.854 170.283 127.382 170.755 126.939 171.108C123.294 174.01 118.128 174.01 114.482 171.108C114.04 170.755 113.567 170.283 112.622 169.338L75.4559 132.172C71.4957 128.211 69.5156 126.231 68.7737 123.948C68.1211 121.94 68.1211 119.776 68.7737 117.768C69.5156 115.484 71.4957 113.504 75.4559 109.544L112.355 72.6447C113.548 71.4517 114.145 70.8552 114.717 70.4269C118.27 67.7663 123.152 67.7663 126.705 70.4269C127.277 70.8552 127.873 71.4517 129.066 72.6447C130.259 73.8376 130.856 74.4341 131.427 74.8624C134.98 77.523 139.862 77.523 143.415 74.8624C143.987 74.4341 144.584 73.8376 145.777 72.6446L168.608 49.8137C172.58 45.8416 174.566 43.8556 175.306 41.5556C175.953 39.5453 175.942 37.3426 175.276 35.3386C174.514 33.0459 172.532 31.1023 168.569 27.2151C155.008 13.9125 145.229 5.3935 136.162 2.44717C126.119 -0.815725 115.302 -0.815725 105.26 2.44717Z" fill="#00278A"/>
<mask id="mask0_124_123" style="mask-type:alpha" maskUnits="userSpaceOnUse" x="148" y="49" width="94" height="144">
<path d="M155.562 142.864C151.602 146.824 149.622 148.804 148.88 151.087C148.228 153.096 148.228 155.259 148.88 157.268C149.622 159.551 151.602 161.531 155.562 165.491L175.288 185.217C179.248 189.177 181.228 191.157 183.511 191.899C185.52 192.551 187.683 192.551 189.692 191.899C191.975 191.157 193.955 189.177 197.915 185.217L205.853 177.279C225.654 157.478 235.554 147.578 239.264 136.162C242.526 126.119 242.526 115.302 239.264 105.26C235.554 93.8434 225.654 83.943 205.853 64.1422L198.596 56.8848C194.635 52.9246 192.655 50.9445 190.372 50.2026C188.364 49.5501 186.2 49.5501 184.192 50.2026C181.908 50.9445 179.928 52.9246 175.968 56.8848L156.096 76.7574C152.135 80.7175 150.155 82.6976 149.413 84.9809C148.761 86.9893 148.761 89.1528 149.413 91.1612C150.155 93.4445 152.135 95.4246 156.096 99.3848L177.569 120.858L155.562 142.864Z" fill="#005FB7"/>
</mask>
<g mask="url(#mask0_124_123)">
<path d="M155.562 142.864C151.602 146.824 149.622 148.804 148.88 151.087C148.228 153.096 148.228 155.259 148.88 157.268C149.622 159.551 151.602 161.531 155.562 165.491L175.288 185.217C179.248 189.177 181.228 191.157 183.511 191.899C185.52 192.551 187.683 192.551 189.692 191.899C191.975 191.157 193.955 189.177 197.915 185.217L205.853 177.279C225.654 157.478 235.554 147.578 239.264 136.162C242.526 126.119 242.526 115.302 239.264 105.26C235.554 93.8434 225.654 83.943 205.853 64.1422L198.596 56.8848C194.635 52.9246 192.655 50.9445 190.372 50.2026C188.364 49.5501 186.2 49.5501 184.192 50.2026C181.908 50.9445 179.928 52.9246 175.968 56.8848L156.096 76.7574C152.135 80.7175 150.155 82.6976 149.413 84.9809C148.761 86.9893 148.761 89.1528 149.413 91.1612C150.155 93.4445 152.135 95.4246 156.096 99.3848L177.569 120.858L155.562 142.864Z" fill="#005FB7"/>
<g filter="url(#filter0_d_124_123)">
<path d="M199.132 184C205.853 177.279 205.853 177.279 205.853 177.279C225.654 157.478 235.554 147.578 239.263 136.162C242.526 126.119 242.526 115.302 239.263 105.26C235.554 93.8434 225.654 83.943 205.853 64.1422L198.595 56.8848C194.635 52.9246 192.655 50.9445 190.372 50.2026C188.363 49.5501 186.2 49.5501 184.192 50.2026C181.908 50.9445 179.928 52.9246 175.968 56.8848L156.095 76.7574C152.135 80.7175 150.155 82.6976 149.413 84.9809C148.761 86.9893 148.761 89.1528 149.413 91.1612C150.155 93.4445 152.135 95.424 156.094 99.3829C162.021 105.31 169.678 112.967 177.569 120.858C194.5 137.789 213 153 199.132 184Z" fill="url(#paint0_linear_124_123)"/>
</g>
</g>
<path d="M335.64 168H318.2C309.773 168 303.267 165.76 298.68 161.28C294.093 156.8 291.8 150.347 291.8 141.92V91.2C291.8 82.7733 294.093 76.32 298.68 71.84C303.267 67.36 309.773 65.12 318.2 65.12H335.64C343.96 65.12 350.413 67.4133 355 72C359.693 76.48 362.04 82.88 362.04 91.2V98.72C362.04 101.067 360.867 102.24 358.52 102.24H345.08C342.84 102.24 341.72 101.067 341.72 98.72V92.16C341.72 88.7467 340.973 86.3467 339.48 84.96C338.093 83.4667 335.693 82.72 332.28 82.72H321.4C318.093 82.72 315.693 83.4667 314.2 84.96C312.813 86.3467 312.12 88.7467 312.12 92.16V140.96C312.12 144.373 312.813 146.827 314.2 148.32C315.693 149.707 318.093 150.4 321.4 150.4H332.28C335.693 150.4 338.093 149.707 339.48 148.32C340.973 146.827 341.72 144.373 341.72 140.96V134.4C341.72 132.053 342.84 130.88 345.08 130.88H358.52C360.867 130.88 362.04 132.053 362.04 134.4V141.92C362.04 150.24 359.693 156.693 355 161.28C350.413 165.76 343.96 168 335.64 168ZM432.134 65.12H445.574C447.92 65.12 449.094 66.1867 449.094 68.32V141.92C449.094 150.24 446.747 156.693 442.054 161.28C437.467 165.76 431.014 168 422.694 168H405.094C396.667 168 390.16 165.76 385.574 161.28C380.987 156.8 378.694 150.347 378.694 141.92V68.48C378.694 66.24 379.814 65.12 382.054 65.12H395.654C397.894 65.12 399.014 66.24 399.014 68.48V140.96C399.014 144.373 399.707 146.827 401.094 148.32C402.587 149.707 404.987 150.4 408.294 150.4H419.334C422.747 150.4 425.147 149.707 426.534 148.32C428.027 146.827 428.774 144.373 428.774 140.96V68.48C428.774 66.24 429.894 65.12 432.134 65.12ZM479.745 168H464.385C462.465 168 461.825 166.88 462.465 164.64L487.745 68.48C488.492 66.24 490.092 65.12 492.545 65.12H513.825C516.492 65.12 518.092 66.24 518.625 68.48L543.905 164.64C544.545 166.88 543.905 168 541.985 168H526.625C525.452 168 524.652 167.787 524.225 167.36C523.798 166.827 523.478 165.92 523.265 164.64L518.785 147.04H487.585L483.105 164.64C482.892 165.92 482.518 166.827 481.985 167.36C481.558 167.787 480.812 168 479.745 168ZM502.945 84.48L491.425 130.72H515.105L503.585 84.48H502.945ZM580.168 151.04H598.088C601.608 151.04 604.114 150.347 605.608 148.96C607.208 147.467 608.008 145.067 608.008 141.76V132.48C608.008 129.173 607.208 126.827 605.608 125.44C604.008 124.053 601.394 123.36 597.768 123.36H580.168C578.994 123.36 578.408 123.947 578.408 125.12V149.28C578.408 150.453 578.994 151.04 580.168 151.04ZM580.168 106.88H596.488C599.901 106.88 602.408 106.187 604.008 104.8C605.608 103.307 606.408 100.907 606.408 97.6V91.36C606.408 88.0533 605.608 85.7067 604.008 84.32C602.514 82.8267 600.061 82.08 596.648 82.08H580.168C578.994 82.08 578.408 82.6667 578.408 83.84V105.12C578.408 106.293 578.994 106.88 580.168 106.88ZM558.088 164.64V68.48C558.088 66.24 559.208 65.12 561.448 65.12H599.848C608.274 65.12 614.781 67.36 619.368 71.84C623.954 76.32 626.248 82.72 626.248 91.04V97.6C626.248 106.667 622.034 112.533 613.608 115.2C617.874 115.84 621.288 117.6 623.848 120.48C626.408 123.253 627.688 127.253 627.688 132.48V142.08C627.688 150.4 625.394 156.8 620.808 161.28C616.221 165.76 609.768 168 601.448 168H561.448C559.208 168 558.088 166.88 558.088 164.64Z" fill="#00278A"/>
<path d="M298.68 161.28L300.077 159.849L298.68 161.28ZM298.68 71.84L300.077 73.2708L298.68 71.84ZM355 72L353.586 73.4142L353.602 73.4307L353.619 73.4467L355 72ZM339.48 84.96L338.014 86.3209L338.065 86.3752L338.119 86.4256L339.48 84.96ZM314.2 84.96L312.786 83.5458L314.2 84.96ZM314.2 148.32L312.734 149.681L312.785 149.735L312.839 149.786L314.2 148.32ZM339.48 148.32L340.894 149.734L339.48 148.32ZM355 161.28L356.397 162.711L356.398 162.71L355 161.28ZM335.64 166H318.2V170H335.64V166ZM318.2 166C310.126 166 304.184 163.861 300.077 159.849L297.283 162.711C302.349 167.659 309.421 170 318.2 170V166ZM300.077 159.849C295.986 155.853 293.8 149.984 293.8 141.92H289.8C289.8 150.709 292.2 157.747 297.283 162.711L300.077 159.849ZM293.8 141.92V91.2H289.8V141.92H293.8ZM293.8 91.2C293.8 83.1355 295.986 77.2668 300.077 73.2708L297.283 70.4092C292.2 75.3732 289.8 82.4112 289.8 91.2H293.8ZM300.077 73.2708C304.184 69.2593 310.126 67.12 318.2 67.12V63.12C309.421 63.12 302.349 65.4607 297.283 70.4092L300.077 73.2708ZM318.2 67.12H335.64V63.12H318.2V67.12ZM335.64 67.12C343.587 67.12 349.472 69.3007 353.586 73.4142L356.414 70.5858C351.354 65.526 344.333 63.12 335.64 63.12V67.12ZM353.619 73.4467C357.813 77.45 360.04 83.2638 360.04 91.2H364.04C364.04 82.4962 361.574 75.51 356.381 70.5533L353.619 73.4467ZM360.04 91.2V98.72H364.04V91.2H360.04ZM360.04 98.72C360.04 99.585 359.825 99.8665 359.746 99.9458C359.666 100.025 359.385 100.24 358.52 100.24V104.24C360.002 104.24 361.48 103.868 362.574 102.774C363.668 101.68 364.04 100.202 364.04 98.72H360.04ZM358.52 100.24H345.08V104.24H358.52V100.24ZM345.08 100.24C344.293 100.24 344.063 100.038 344.007 99.979C343.933 99.9022 343.72 99.6077 343.72 98.72H339.72C339.72 100.179 340.067 101.644 341.113 102.741C342.177 103.855 343.627 104.24 345.08 104.24V100.24ZM343.72 98.72V92.16H339.72V98.72H343.72ZM343.72 92.16C343.72 88.5487 342.946 85.4488 340.841 83.4944L338.119 86.4256C339.001 87.2445 339.72 88.9446 339.72 92.16H343.72ZM340.946 83.5991C338.991 81.4944 335.891 80.72 332.28 80.72V84.72C335.495 84.72 337.195 85.4389 338.014 86.3209L340.946 83.5991ZM332.28 80.72H321.4V84.72H332.28V80.72ZM321.4 80.72C317.854 80.72 314.819 81.5122 312.786 83.5458L315.614 86.3742C316.567 85.4212 318.332 84.72 321.4 84.72V80.72ZM312.786 83.5458C310.828 85.504 310.12 88.5805 310.12 92.16H314.12C314.12 88.9128 314.799 87.1893 315.614 86.3742L312.786 83.5458ZM310.12 92.16V140.96H314.12V92.16H310.12ZM310.12 140.96C310.12 144.56 310.836 147.637 312.734 149.681L315.666 146.959C314.79 146.017 314.12 144.187 314.12 140.96H310.12ZM312.839 149.786C314.874 151.675 317.886 152.4 321.4 152.4V148.4C318.301 148.4 316.513 147.738 315.561 146.854L312.839 149.786ZM321.4 152.4H332.28V148.4H321.4V152.4ZM332.28 152.4C335.859 152.4 338.936 151.692 340.894 149.734L338.066 146.906C337.251 147.721 335.527 148.4 332.28 148.4V152.4ZM340.894 149.734C342.938 147.691 343.72 144.591 343.72 140.96H339.72C339.72 144.156 339.009 145.962 338.066 146.906L340.894 149.734ZM343.72 140.96V134.4H339.72V140.96H343.72ZM343.72 134.4C343.72 133.512 343.933 133.218 344.007 133.141C344.063 133.082 344.293 132.88 345.08 132.88V128.88C343.627 128.88 342.177 129.265 341.113 130.379C340.067 131.476 339.72 132.941 339.72 134.4H343.72ZM345.08 132.88H358.52V128.88H345.08V132.88ZM358.52 132.88C359.385 132.88 359.666 133.095 359.746 133.174C359.825 133.254 360.04 133.535 360.04 134.4H364.04C364.04 132.918 363.668 131.44 362.574 130.346C361.48 129.252 360.002 128.88 358.52 128.88V132.88ZM360.04 134.4V141.92H364.04V134.4H360.04ZM360.04 141.92C360.04 149.854 357.814 155.734 353.602 159.85L356.398 162.71C361.573 157.653 364.04 150.626 364.04 141.92H360.04ZM353.603 159.849C349.491 163.865 343.599 166 335.64 166V170C344.321 170 351.336 167.655 356.397 162.711L353.603 159.849ZM442.054 161.28L443.451 162.711L443.452 162.71L442.054 161.28ZM401.094 148.32L399.628 149.681L399.679 149.735L399.733 149.786L401.094 148.32ZM426.534 148.32L427.948 149.734L426.534 148.32ZM432.134 67.12H445.574V63.12H432.134V67.12ZM445.574 67.12C446.483 67.12 446.792 67.3308 446.868 67.3999C446.908 67.436 447.094 67.6133 447.094 68.32H451.094C451.094 66.8933 450.693 65.4706 449.559 64.4401C448.462 63.4425 447.011 63.12 445.574 63.12V67.12ZM447.094 68.32V141.92H451.094V68.32H447.094ZM447.094 141.92C447.094 149.854 444.867 155.734 440.656 159.85L443.452 162.71C448.627 157.653 451.094 150.626 451.094 141.92H447.094ZM440.656 159.849C436.545 163.865 430.653 166 422.694 166V170C431.374 170 438.389 167.655 443.451 162.711L440.656 159.849ZM422.694 166H405.094V170H422.694V166ZM405.094 166C397.02 166 391.078 163.861 386.971 159.849L384.176 162.711C389.243 167.659 396.315 170 405.094 170V166ZM386.971 159.849C382.88 155.853 380.694 149.984 380.694 141.92H376.694C376.694 150.709 379.094 157.747 384.176 162.711L386.971 159.849ZM380.694 141.92V68.48H376.694V141.92H380.694ZM380.694 68.48C380.694 67.6683 380.895 67.4269 380.948 67.3742C381.001 67.3216 381.242 67.12 382.054 67.12V63.12C380.625 63.12 379.187 63.4784 378.12 64.5458C377.052 65.6131 376.694 67.0517 376.694 68.48H380.694ZM382.054 67.12H395.654V63.12H382.054V67.12ZM395.654 67.12C396.465 67.12 396.707 67.3216 396.76 67.3742C396.812 67.4269 397.014 67.6683 397.014 68.48H401.014C401.014 67.0517 400.655 65.6131 399.588 64.5458C398.521 63.4784 397.082 63.12 395.654 63.12V67.12ZM397.014 68.48V140.96H401.014V68.48H397.014ZM397.014 140.96C397.014 144.56 397.73 147.637 399.628 149.681L402.559 146.959C401.684 146.017 401.014 144.187 401.014 140.96H397.014ZM399.733 149.786C401.768 151.675 404.78 152.4 408.294 152.4V148.4C405.194 148.4 403.406 147.738 402.455 146.854L399.733 149.786ZM408.294 152.4H419.334V148.4H408.294V152.4ZM419.334 152.4C422.913 152.4 425.99 151.692 427.948 149.734L425.12 146.906C424.304 147.721 422.581 148.4 419.334 148.4V152.4ZM427.948 149.734C429.991 147.691 430.774 144.591 430.774 140.96H426.774C426.774 144.156 426.063 145.962 425.12 146.906L427.948 149.734ZM430.774 140.96V68.48H426.774V140.96H430.774ZM430.774 68.48C430.774 67.6683 430.975 67.4269 431.028 67.3742C431.081 67.3216 431.322 67.12 432.134 67.12V63.12C430.705 63.12 429.267 63.4784 428.2 64.5458C427.132 65.6131 426.774 67.0517 426.774 68.48H430.774ZM462.465 164.64L464.388 165.189L464.394 165.169L464.399 165.149L462.465 164.64ZM487.745 68.48L485.848 67.8475L485.827 67.9089L485.811 67.9715L487.745 68.48ZM518.625 68.48L516.679 68.9432L516.685 68.9659L516.691 68.9885L518.625 68.48ZM543.905 164.64L541.971 165.149L541.976 165.169L541.982 165.189L543.905 164.64ZM524.225 167.36L522.663 168.609L522.732 168.696L522.811 168.774L524.225 167.36ZM523.265 164.64L525.238 164.311L525.224 164.228L525.203 164.147L523.265 164.64ZM518.785 147.04L520.723 146.547L520.34 145.04H518.785V147.04ZM487.585 147.04V145.04H486.03L485.647 146.547L487.585 147.04ZM483.105 164.64L481.167 164.147L481.146 164.228L481.132 164.311L483.105 164.64ZM481.985 167.36L483.399 168.774L481.985 167.36ZM502.945 84.48V82.48H501.382L501.004 83.9965L502.945 84.48ZM491.425 130.72L489.484 130.237L488.866 132.72H491.425V130.72ZM515.105 130.72V132.72H517.664L517.046 130.237L515.105 130.72ZM503.585 84.48L505.526 83.9965L505.148 82.48H503.585V84.48ZM479.745 166H464.385V170H479.745V166ZM464.385 166C464.084 166 463.978 165.954 463.987 165.958C464.026 165.975 464.13 166.043 464.201 166.168C464.259 166.268 464.225 166.284 464.225 166.11C464.225 165.932 464.261 165.634 464.388 165.189L460.542 164.091C460.183 165.347 459.993 166.866 460.729 168.152C461.561 169.609 463.09 170 464.385 170V166ZM464.399 165.149L489.679 68.9885L485.811 67.9715L460.531 164.131L464.399 165.149ZM489.642 69.1124C489.909 68.3124 490.272 67.8644 490.652 67.5985C491.038 67.3279 491.623 67.12 492.545 67.12V63.12C491.014 63.12 489.572 63.4721 488.358 64.3215C487.138 65.1756 486.328 66.4076 485.848 67.8475L489.642 69.1124ZM492.545 67.12H513.825V63.12H492.545V67.12ZM513.825 67.12C514.894 67.12 515.517 67.3457 515.878 67.5985C516.207 67.8287 516.505 68.2094 516.679 68.9432L520.571 68.0168C520.212 66.5106 519.443 65.2113 518.172 64.3215C516.933 63.4543 515.422 63.12 513.825 63.12V67.12ZM516.691 68.9885L541.971 165.149L545.839 164.131L520.559 67.9715L516.691 68.9885ZM541.982 165.189C542.109 165.634 542.145 165.932 542.145 166.11C542.145 166.284 542.111 166.268 542.169 166.168C542.24 166.043 542.344 165.975 542.383 165.958C542.392 165.954 542.286 166 541.985 166V170C543.28 170 544.809 169.609 545.641 168.152C546.377 166.866 546.187 165.347 545.828 164.091L541.982 165.189ZM541.985 166H526.625V170H541.985V166ZM526.625 166C526.146 166 525.839 165.955 525.66 165.908C525.479 165.859 525.528 165.835 525.639 165.946L522.811 168.774C523.838 169.802 525.362 170 526.625 170V166ZM525.787 166.111C525.691 165.991 525.437 165.507 525.238 164.311L521.292 164.969C521.52 166.333 521.906 167.663 522.663 168.609L525.787 166.111ZM525.203 164.147L520.723 146.547L516.847 147.533L521.327 165.133L525.203 164.147ZM518.785 145.04H487.585V149.04H518.785V145.04ZM485.647 146.547L481.167 164.147L485.043 165.133L489.523 147.533L485.647 146.547ZM481.132 164.311C480.943 165.444 480.664 165.853 480.571 165.946L483.399 168.774C484.373 167.801 484.84 166.396 485.078 164.969L481.132 164.311ZM480.571 165.946C480.657 165.859 480.694 165.878 480.556 165.917C480.413 165.958 480.157 166 479.745 166V170C480.967 170 482.397 169.777 483.399 168.774L480.571 165.946ZM501.004 83.9965L489.484 130.237L493.366 131.203L504.886 84.9635L501.004 83.9965ZM491.425 132.72H515.105V128.72H491.425V132.72ZM517.046 130.237L505.526 83.9965L501.644 84.9635L513.164 131.203L517.046 130.237ZM503.585 82.48H502.945V86.48H503.585V82.48ZM605.608 148.96L606.968 150.426L606.972 150.422L605.608 148.96ZM605.608 125.44L604.298 126.951L605.608 125.44ZM604.008 104.8L605.317 106.311L605.345 106.287L605.372 106.262L604.008 104.8ZM604.008 84.32L602.593 85.7342L602.644 85.7847L602.698 85.8314L604.008 84.32ZM619.367 71.84L617.97 73.2708L619.367 71.84ZM613.608 115.2L613.004 113.293L613.311 117.178L613.608 115.2ZM623.848 120.48L622.353 121.809L622.365 121.823L622.378 121.837L623.848 120.48ZM580.168 153.04H598.087V149.04H580.168V153.04ZM598.087 153.04C601.774 153.04 604.916 152.332 606.968 150.426L604.247 147.494C603.313 148.362 601.441 149.04 598.087 149.04V153.04ZM606.972 150.422C609.146 148.394 610.008 145.339 610.008 141.76H606.008C606.008 144.794 605.269 146.54 604.243 147.498L606.972 150.422ZM610.008 141.76V132.48H606.008V141.76H610.008ZM610.008 132.48C610.008 128.917 609.152 125.866 606.917 123.929L604.298 126.951C605.263 127.788 606.008 129.429 606.008 132.48H610.008ZM606.917 123.929C604.771 122.069 601.561 121.36 597.768 121.36V125.36C601.227 125.36 603.244 126.038 604.298 126.951L606.917 123.929ZM597.768 121.36H580.168V125.36H597.768V121.36ZM580.168 121.36C579.273 121.36 578.234 121.585 577.433 122.386C576.633 123.186 576.408 124.225 576.408 125.12H580.408C580.408 124.987 580.425 124.953 580.415 124.982C580.402 125.022 580.359 125.117 580.262 125.214C580.164 125.312 580.069 125.354 580.03 125.367C580 125.377 580.035 125.36 580.168 125.36V121.36ZM576.408 125.12V149.28H580.408V125.12H576.408ZM576.408 149.28C576.408 150.175 576.633 151.214 577.433 152.014C578.234 152.815 579.273 153.04 580.168 153.04V149.04C580.035 149.04 580 149.023 580.03 149.033C580.069 149.046 580.164 149.088 580.262 149.186C580.359 149.283 580.402 149.378 580.415 149.418C580.425 149.447 580.408 149.413 580.408 149.28H576.408ZM580.168 108.88H596.487V104.88H580.168V108.88ZM596.487 108.88C600.105 108.88 603.188 108.157 605.317 106.311L602.698 103.289C601.627 104.217 599.697 104.88 596.487 104.88V108.88ZM605.372 106.262C607.546 104.234 608.408 101.179 608.408 97.6H604.408C604.408 100.634 603.669 102.38 602.643 103.338L605.372 106.262ZM608.408 97.6V91.36H604.408V97.6H608.408ZM608.408 91.36C608.408 87.7973 607.552 84.7455 605.317 82.8086L602.698 85.8314C603.663 86.6678 604.408 88.3093 604.408 91.36H608.408ZM605.422 82.9058C603.378 80.8625 600.278 80.08 596.647 80.08V84.08C599.844 84.08 601.65 84.7909 602.593 85.7342L605.422 82.9058ZM596.647 80.08H580.168V84.08H596.647V80.08ZM580.168 80.08C579.273 80.08 578.234 80.3051 577.433 81.1058C576.633 81.9065 576.408 82.945 576.408 83.84H580.408C580.408 83.7074 580.425 83.6727 580.415 83.7025C580.402 83.7419 580.359 83.8366 580.262 83.9342C580.164 84.0319 580.069 84.0742 580.03 84.0874C580 84.0973 580.035 84.08 580.168 84.08V80.08ZM576.408 83.84V105.12H580.408V83.84H576.408ZM576.408 105.12C576.408 106.015 576.633 107.054 577.433 107.854C578.234 108.655 579.273 108.88 580.168 108.88V104.88C580.035 104.88 580 104.863 580.03 104.873C580.069 104.886 580.164 104.928 580.262 105.026C580.359 105.123 580.402 105.218 580.415 105.258C580.425 105.287 580.408 105.253 580.408 105.12H576.408ZM560.087 164.64V68.48H556.087V164.64H560.087ZM560.087 68.48C560.087 67.6683 560.289 67.4269 560.342 67.3742C560.394 67.3216 560.636 67.12 561.448 67.12V63.12C560.019 63.12 558.581 63.4784 557.513 64.5458C556.446 65.6131 556.087 67.0517 556.087 68.48H560.087ZM561.448 67.12H599.848V63.12H561.448V67.12ZM599.848 67.12C607.922 67.12 613.863 69.2593 617.97 73.2708L620.765 70.4092C615.699 65.4607 608.627 63.12 599.848 63.12V67.12ZM617.97 73.2708C622.066 77.2714 624.247 83.0908 624.247 91.04H628.247C628.247 82.3492 625.842 75.3686 620.765 70.4092L617.97 73.2708ZM624.247 91.04V97.6H628.247V91.04H624.247ZM624.247 97.6C624.247 101.822 623.269 105.118 621.463 107.633C619.66 110.144 616.9 112.06 613.004 113.293L614.211 117.107C618.742 115.673 622.302 113.323 624.712 109.967C627.119 106.615 628.247 102.444 628.247 97.6H624.247ZM613.311 117.178C617.173 117.757 620.141 119.321 622.353 121.809L625.342 119.151C622.434 115.879 618.575 113.923 613.904 113.222L613.311 117.178ZM622.378 121.837C624.484 124.119 625.688 127.561 625.688 132.48H629.688C629.688 126.945 628.331 122.388 625.317 119.123L622.378 121.837ZM625.688 132.48V142.08H629.688V132.48H625.688ZM625.688 142.08C625.688 150.029 623.506 155.849 619.41 159.849L622.205 162.711C627.282 157.751 629.688 150.771 629.688 142.08H625.688ZM619.41 159.849C615.299 163.865 609.407 166 601.448 166V170C610.128 170 617.143 167.655 622.205 162.711L619.41 159.849ZM601.448 166H561.448V170H601.448V166ZM561.448 166C560.636 166 560.394 165.798 560.342 165.746C560.289 165.693 560.087 165.452 560.087 164.64H556.087C556.087 166.068 556.446 167.507 557.513 168.574C558.581 169.642 560.019 170 561.448 170V166Z" fill="#00278A"/>
<defs>
<filter id="filter0_d_124_123" x="128.924" y="29.7132" width="132.787" height="174.287" filterUnits="userSpaceOnUse" color-interpolation-filters="sRGB">
<feFlood flood-opacity="0" result="BackgroundImageFix"/>
<feColorMatrix in="SourceAlpha" type="matrix" values="0 0 0 0 0 0 0 0 0 0 0 0 0 0 0 0 0 0 127 0" result="hardAlpha"/>
<feOffset/>
<feGaussianBlur stdDeviation="10"/>
<feComposite in2="hardAlpha" operator="out"/>
<feColorMatrix type="matrix" values="0 0 0 0 0 0 0 0 0 0 0 0 0 0 0 0 0 0 0.5 0"/>
<feBlend mode="normal" in2="BackgroundImageFix" result="effect1_dropShadow_124_123"/>
<feBlend mode="normal" in="SourceGraphic" in2="effect1_dropShadow_124_123" result="shape"/>
</filter>
<linearGradient id="paint0_linear_124_123" x1="163.5" y1="69.5" x2="235" y2="144.5" gradientUnits="userSpaceOnUse">
<stop stop-color="#4AA8FF"/>
<stop offset="1" stop-color="#0085FF"/>
</linearGradient>
</defs>
</svg>
