<svg width="201" height="31" viewBox="0 0 201 31" fill="none" xmlns="http://www.w3.org/2000/svg">
<path d="M197.802 27.0828C196.192 28.776 194.366 29.7856 192.075 30.2466C190.529 30.5593 189.175 30.6249 187.604 30.462C185.521 30.2479 183.803 29.5788 182.126 28.3247C180.756 27.303 179.774 26.1972 178.916 24.7157C178.255 23.5686 177.869 22.4957 177.655 21.1893C177.354 19.3769 177.434 17.7822 177.91 16.0099C179 11.9787 182.033 9.12141 186.12 8.27114C188.454 7.7858 190.529 7.83567 192.837 8.43171C194.48 8.85623 195.785 9.57147 197.029 10.7283C197.813 11.4557 198.37 12.1867 198.864 13.1331C199.449 14.2522 199.685 15.3396 199.618 16.5998H192.328C192.17 15.6231 191.702 14.8446 190.915 14.2461C189.896 13.4688 188.581 13.4068 187.491 14.0807C186.746 14.5441 186.257 15.1742 185.993 16.0099C185.366 18.0011 185.338 19.8537 185.897 21.8644C186.136 22.7098 186.536 23.3728 187.176 23.9761C187.904 24.6719 188.813 24.9577 189.81 24.8106C190.428 24.7205 190.931 24.4505 191.347 23.9822C191.783 23.4993 192.033 22.9811 192.147 22.34C192.227 21.8888 192.272 21.5068 192.297 21.0494H199.982C200.135 23.3667 199.401 25.4017 197.802 27.0828Z" fill="#0F58A8"/>
<path d="M168.42 5.63453H176.393V0.00253439H168.42V5.63453Z" fill="#0F58A8"/>
<path d="M168.42 29.8495H176.393V8.52944H168.42V29.8495Z" fill="#0F58A8"/>
<path d="M151.905 10.7795C152.954 9.86236 153.954 9.21523 155.219 8.63014C157.278 7.67892 159.337 7.52443 161.516 8.16061C163.853 8.84544 165.536 10.4888 166.273 12.8109C166.627 13.9264 166.781 14.9165 166.781 16.0867V29.8466H158.313V17.4722C158.313 17.0586 158.263 16.7083 158.139 16.3117C157.923 15.6013 157.453 15.0783 156.767 14.7888C155.266 14.1514 153.56 14.7158 152.736 16.122C152.392 16.7083 152.235 17.2861 152.235 17.9672V29.8466H144.034V8.52553H151.728L151.905 10.7795Z" fill="#0F58A8"/>
<path d="M57.6105 10.7795C58.659 9.86236 59.6589 9.21523 60.9215 8.63014C62.9821 7.67892 65.0427 7.52443 67.22 8.16061C69.558 8.84544 71.2415 10.4888 71.9786 12.8109C72.3326 13.9264 72.4858 14.9165 72.4858 16.0867V29.8466H64.0185V17.4722C64.0185 17.0586 63.9662 16.7083 63.8457 16.3117C63.6268 15.6013 63.1573 15.0783 62.47 14.7888C60.9702 14.1514 59.2636 14.7158 58.4413 16.122C58.0958 16.7083 57.9389 17.2861 57.9389 17.9672V29.8466H49.7391V8.52553H57.4317L57.6105 10.7795Z" fill="#0F58A8"/>
<path d="M107.862 22.0104C108.472 22.1138 108.983 22.2415 109.57 22.4374C110.06 22.5979 110.397 22.9774 110.504 23.4798C110.621 24.0284 110.466 24.549 110.072 24.9444C109.672 25.3494 109.216 25.583 108.654 25.6706C107.902 25.791 107.235 25.7289 106.519 25.4686C106.172 25.3446 105.897 25.1876 105.613 24.9529C105.247 24.6439 105.011 24.2899 104.868 23.8326C104.749 23.4445 104.702 23.1015 104.709 22.6952H96.9008V23.1502C96.9008 23.8849 97.0152 24.5077 97.273 25.1949C97.6647 26.2289 98.2011 27.0281 99.0113 27.7822C100.068 28.7712 101.172 29.3879 102.562 29.7856C105.448 30.6079 108.048 30.7709 111.015 30.316C112.406 30.1031 113.555 29.7285 114.806 29.0801C115.357 28.7943 115.799 28.4987 116.274 28.0997C118.384 26.3286 119.166 23.6258 118.323 21.0044C118.004 20.0167 117.501 19.2553 116.716 18.5741C115.641 17.6423 114.552 17.0487 113.185 16.6497C112.886 16.5634 112.63 16.4904 112.328 16.4077C110.656 15.943 109.219 15.6365 107.502 15.381C107.042 15.3129 106.655 15.2387 106.201 15.1329C105.992 15.083 105.818 15.0246 105.624 14.9358C105.143 14.7193 104.93 14.1537 105.147 13.6744C105.159 13.6489 105.17 13.6258 105.183 13.6014C105.441 13.1404 105.823 12.84 106.327 12.6928C107.218 12.4349 108.039 12.4568 108.914 12.7548C109.753 13.0407 110.28 13.8106 110.244 14.6974H117.767C117.76 13.7729 117.619 12.992 117.307 12.1235C116.988 11.2428 116.504 10.5726 115.768 9.99236C115.129 9.48391 114.522 9.13845 113.759 8.84286C113.017 8.55458 112.363 8.37455 111.578 8.2371C109.713 7.91597 108.109 7.8223 106.221 7.93421C105.142 7.99625 104.232 8.13005 103.176 8.37698C101.755 8.71149 100.611 9.26009 99.4626 10.1602C98.487 10.9253 97.8484 11.8194 97.4397 12.9896C97.2536 13.5199 97.1648 13.9907 97.1405 14.549C97.0979 15.4844 97.2329 16.2812 97.5796 17.1509C98.1999 18.7079 99.302 19.8112 100.861 20.4327C101.651 20.7478 102.343 20.9546 103.176 21.1249C104.818 21.4642 106.209 21.7282 107.862 22.0104Z" fill="#0F58A8"/>
<path d="M14.5305 20.6545H9.05916V13.659H12.6147C13.2898 13.659 13.8615 13.6432 14.5366 13.6054C15.472 13.5544 16.2493 13.1359 16.8064 12.383C17.102 11.9828 17.2686 11.5789 17.3392 11.0851C17.3976 10.6691 17.4061 10.3139 17.3647 9.89786C17.2127 8.34086 15.9233 7.17312 14.3602 7.17312H9.05916V29.8481H0.00183105V0H14.8067C15.3954 0 15.8929 0.0109468 16.4804 0.0437896C20.4082 0.254227 23.6438 2.43523 25.3078 5.99929C26.1739 7.8543 26.4683 9.63755 26.2457 11.6738C25.7762 15.9604 22.7777 19.2946 18.5653 20.2178C17.1689 20.5243 15.9598 20.6545 14.5305 20.6545Z" fill="#0F58A8"/>
<path d="M133.435 8.11951C132.592 7.98571 131.872 7.93097 131.02 7.93097C130.166 7.93097 129.447 7.98571 128.603 8.11951C126.155 8.50268 124.172 9.48675 122.386 11.2019C120.473 13.0399 119.426 15.2148 119.186 17.8556C119.04 19.477 119.166 20.8747 119.602 22.4426C120.271 24.8487 121.528 26.7073 123.511 28.2254C124.816 29.2289 126.114 29.8298 127.722 30.1802C128.864 30.4307 129.851 30.5341 131.02 30.5341C132.187 30.5341 133.175 30.4307 134.318 30.1802C135.925 29.8298 137.223 29.2289 138.528 28.2254L133.947 23.2333C133.219 24.8511 131.321 25.5724 129.702 24.8438C128.957 24.5081 128.427 23.9802 128.09 23.2333C127.78 22.5436 127.599 21.9257 127.487 21.1764C127.261 19.679 127.286 18.3786 127.58 16.891C127.729 16.1186 127.987 15.4885 128.418 14.8304C129.359 13.3938 131.286 12.9924 132.725 13.9327C133.101 14.1796 133.376 14.4545 133.62 14.8304C134.052 15.4885 134.31 16.1186 134.46 16.891C134.749 18.3786 134.778 19.679 134.552 21.1764C134.439 21.9257 134.258 22.5436 133.947 23.2333L138.528 28.2254C140.512 26.7073 141.769 24.8487 142.437 22.4426C142.873 20.8747 142.997 19.477 142.853 17.8556C142.613 15.2148 141.568 13.0399 139.655 11.2019C137.867 9.48431 135.885 8.50268 133.435 8.11951Z" fill="#0F58A8"/>
<path d="M96.0262 28.1776C95.907 26.4211 95.8401 24.9335 95.8048 23.1709C95.7586 20.8549 95.7306 18.9013 95.7148 16.5865C95.705 15.3373 95.5676 14.2827 95.255 13.0736C94.845 11.4886 93.9169 10.2844 92.4877 9.48396C91.624 9.00105 90.8321 8.70425 89.8663 8.49503C86.7913 7.83696 84.0775 7.78222 80.9793 8.31987C80.1084 8.4707 79.3882 8.67992 78.5708 9.01808C76.683 9.79901 75.3826 11.2222 74.7769 13.1721C74.5445 13.9177 74.4825 14.5941 74.5713 15.3713C74.5883 15.5137 74.6236 15.6341 74.6881 15.7642L81.8624 15.9394C81.8442 15.482 81.9038 15.0952 82.0582 14.6658C82.293 14.0114 82.7552 13.5467 83.4097 13.3083C84.3718 12.9544 85.2987 12.941 86.2743 13.2597C86.9153 13.4701 87.3703 13.9323 87.5698 14.5758C87.695 14.9784 87.633 15.375 87.3897 15.7192C87.1781 16.0233 86.9165 16.2277 86.5699 16.3603C86.3558 16.4418 86.1733 16.5014 85.9544 16.5598C84.9569 16.8286 84.1054 17.0135 83.0873 17.1826C82.2808 17.3152 81.6021 17.4404 80.8029 17.6034C79.7167 17.8187 78.8092 18.0572 77.757 18.3978C76.7937 18.7091 76.0346 19.1519 75.2902 19.8368C74.3219 20.7223 73.7685 21.772 73.5836 23.0748C73.4619 23.9433 73.4899 24.6999 73.6821 25.5551C74.1845 27.7786 75.7281 29.4232 77.9188 30.0606C80.3468 30.7649 82.6251 30.6493 84.9691 29.703C86.1101 29.2444 86.9786 28.6082 87.7632 27.6619L87.2571 23.9968C86.8959 24.5564 86.447 24.9383 85.84 25.2059C85.2708 25.4577 84.7562 25.5903 84.1371 25.6536C83.6213 25.7047 83.1737 25.667 82.6737 25.5271C82.2675 25.4152 81.95 25.2254 81.6617 24.9189C81.4184 24.6561 81.2737 24.3739 81.1995 24.0236C81.0863 23.486 81.2627 22.969 81.6824 22.6126C81.9634 22.3729 82.2383 22.2124 82.5825 22.0859C83.4157 21.7793 84.1273 21.5494 84.98 21.3074C86.0115 21.0167 86.8655 20.7016 87.8386 20.254C87.9347 21.0337 87.9298 21.7015 87.8216 22.4776C87.7425 23.0468 87.5698 23.5151 87.2571 23.9968L87.7632 27.6619C87.9201 28.1825 88.0648 28.618 88.2424 29.1276C88.3434 29.4135 88.4748 29.6349 88.6742 29.8575H96.5772C96.2403 29.3283 96.0688 28.8053 96.0262 28.1776Z" fill="#0F58A8"/>
<path d="M48.161 28.1776C48.0417 26.4211 47.9748 24.9335 47.9396 23.1709C47.8921 20.8549 47.8654 18.9013 47.8496 16.5865C47.841 15.3373 47.7036 14.2827 47.3898 13.0736C46.9798 11.4886 46.0529 10.2844 44.6224 9.48396C43.7588 9.00105 42.9669 8.70425 42.0011 8.49503C38.926 7.83696 36.2122 7.78222 33.1129 8.31987C32.2443 8.4707 31.5218 8.67992 30.7056 9.01808C28.8177 9.79901 27.5174 11.2222 26.9116 13.1721C26.6805 13.9177 26.6173 14.5941 26.7073 15.3713C26.7231 15.5137 26.7584 15.6341 26.8228 15.7642L33.9972 15.9394C33.9801 15.482 34.0385 15.0952 34.193 14.6658C34.4278 14.0114 34.89 13.5467 35.5444 13.3083C36.5078 12.9544 37.4335 12.941 38.4078 13.2597C39.0501 13.4701 39.5063 13.9323 39.707 14.5758C39.8298 14.9784 39.7678 15.375 39.5245 15.7192C39.3116 16.0233 39.0501 16.2277 38.7047 16.3603C38.4906 16.4418 38.3081 16.5014 38.0879 16.5598C37.0917 16.8286 36.239 17.0135 35.2221 17.1826C34.4168 17.3152 33.7369 17.4404 32.9365 17.6034C31.8514 17.8187 30.9452 18.0572 29.8906 18.3978C28.9296 18.7091 28.1706 19.1519 27.425 19.8368C26.4567 20.7223 25.9045 21.772 25.7183 23.0748C25.5955 23.9433 25.6247 24.6999 25.8181 25.5551C26.318 27.7786 27.8641 29.4232 30.0524 30.0606C32.4828 30.7649 34.7586 30.6493 37.1039 29.703C38.2436 29.2444 39.1146 28.6082 39.8992 27.6619L39.3931 23.9968C39.0319 24.5564 38.5818 24.9383 37.9736 25.2059C37.4055 25.4577 36.8898 25.5903 36.2731 25.6536C35.7549 25.7047 35.3097 25.667 34.8085 25.5271C34.4022 25.4152 34.0848 25.2254 33.7977 24.9189C33.5532 24.6561 33.4084 24.3739 33.3342 24.0236C33.2223 23.486 33.3975 22.969 33.8172 22.6126C34.0969 22.3729 34.3718 22.2124 34.7173 22.0859C35.5505 21.7793 36.2633 21.5494 37.116 21.3074C38.1475 21.0167 39.0002 20.7016 39.9746 20.254C40.0695 21.0337 40.0646 21.7015 39.9563 22.4776C39.8773 23.0468 39.7033 23.5151 39.3931 23.9968L39.8992 27.6619C40.0549 28.1825 40.1996 28.618 40.3784 29.1276C40.4782 29.4135 40.6095 29.6349 40.809 29.8575H48.712C48.375 29.3283 48.2047 28.8053 48.161 28.1776Z" fill="#0F58A8"/>
</svg>
