<svg width="201" height="36" viewBox="0 0 201 36" fill="none" xmlns="http://www.w3.org/2000/svg">
<path d="M22.3138 5.98577H39.6851L35.9226 29.9288H13.3357L15.4856 16.2471H21.561L22.5153 10.2613H16.4262L18.0388 0H0.00195312V0.85511C0.00195312 3.68869 2.29901 5.98577 5.1326 5.98577H11.0389L10.367 10.2613H2.56731V11.1164C2.56731 13.95 4.86438 16.2471 7.69796 16.2471H9.4264L6.87908 32.4571C6.74329 33.3214 6.99253 34.2019 7.56118 34.8668C8.12974 35.5318 8.96078 35.9146 9.83573 35.9146H38.4819C39.9555 35.9146 41.2098 34.842 41.4386 33.3863L46.1417 3.45747C46.2775 2.59321 46.0282 1.7127 45.4596 1.04777C44.891 0.382832 44.06 0 43.185 0H23.268L22.3138 5.98577Z" fill="#E52421"/>
<path d="M52.771 11.5829L53.6018 6.68542H73.0605L72.2296 11.5829H65.4956L62.6096 29.0737H56.619L59.505 11.5829H52.771Z" fill="#E52421"/>
<path d="M71.6311 29.0737L75.348 6.68542H91.4834L90.6522 11.5829H80.5952L79.983 15.4309H89.2096L88.3785 20.3283H79.1522L78.54 24.1763H88.5538L87.7226 29.0737H71.6311Z" fill="#E52421"/>
<path d="M90.7813 29.0737L94.4977 6.68542H100.576L97.6897 24.1763H106.741L105.911 29.0737H90.7813Z" fill="#E52421"/>
<path d="M199.965 15.0811H193.887C193.931 14.5636 193.902 14.0972 193.8 13.6818C193.698 13.2663 193.523 12.9093 193.275 12.6105C193.027 12.3044 192.703 12.0712 192.302 11.9108C191.902 11.7505 191.424 11.6703 190.87 11.6703C189.806 11.6703 188.855 11.9363 188.017 12.4684C187.179 12.9931 186.483 13.7473 185.929 14.7312C185.375 15.7078 184.981 16.8739 184.749 18.2294C184.544 19.5412 184.536 20.6307 184.726 21.498C184.923 22.3652 185.306 23.0139 185.874 23.4439C186.45 23.8738 187.197 24.0889 188.115 24.0889C188.727 24.0889 189.288 24.0159 189.799 23.8702C190.316 23.7244 190.775 23.5167 191.176 23.2471C191.584 22.9701 191.931 22.6422 192.215 22.2632C192.506 21.877 192.728 21.4506 192.882 20.9842H199.003C198.77 21.9316 198.355 22.9009 197.757 23.892C197.16 24.8759 196.387 25.7833 195.439 26.6141C194.493 27.4376 193.377 28.1045 192.095 28.6146C190.812 29.1248 189.369 29.3799 187.765 29.3799C185.666 29.3799 183.856 28.9207 182.332 28.0025C180.817 27.0842 179.716 25.7432 179.031 23.9795C178.353 22.2158 178.218 20.0659 178.627 17.5298C179.035 15.0811 179.84 13.0295 181.043 11.3752C182.245 9.72081 183.706 8.47457 185.426 7.63648C187.146 6.79838 188.975 6.37929 190.914 6.37929C192.379 6.37929 193.69 6.57246 194.849 6.95872C196.015 7.34497 196.995 7.90977 197.79 8.65312C198.592 9.3892 199.182 10.2966 199.561 11.3752C199.94 12.4537 200.075 13.689 199.965 15.0811Z" fill="#E52421"/>
<path fill-rule="evenodd" clip-rule="evenodd" d="M114.183 29.0737H107.624L118.731 6.68535H127.039L130.712 29.0737H124.153L123.575 24.7884H116.193L114.183 29.0737ZM121.966 12.8509L122.962 20.2408H118.326L121.792 12.8509H121.966Z" fill="#1F2326"/>
<path d="M155.956 6.68535L152.24 29.0737H147.167L141.046 17.311H140.914L138.946 29.0737H132.868L136.585 6.68535H141.745L147.78 18.4042H147.954L149.878 6.68535H155.956Z" fill="#1F2326"/>
<path fill-rule="evenodd" clip-rule="evenodd" d="M163.86 29.0737H155.115L158.831 6.68535H167.227C169.53 6.68535 171.454 7.14813 172.999 8.0737C174.544 8.99919 175.641 10.322 176.29 12.0419C176.938 13.7618 177.065 15.8097 176.672 18.1855C176.293 20.474 175.524 22.4307 174.366 24.056C173.214 25.6812 171.741 26.9237 169.949 27.7837C168.164 28.6437 166.134 29.0737 163.86 29.0737ZM162.045 23.9138H164.253C165.361 23.9138 166.349 23.7208 167.216 23.3345C168.091 22.9409 168.82 22.285 169.403 21.3667C169.993 20.4412 170.419 19.1767 170.681 17.5734C170.929 16.0575 170.922 14.8878 170.66 14.0643C170.397 13.2335 169.898 12.6578 169.162 12.3371C168.426 12.0091 167.474 11.8452 166.309 11.8452H164.057L162.045 23.9138Z" fill="#1F2326"/>
</svg>
