<svg width="663" height="223" viewBox="0 0 663 223" fill="none" xmlns="http://www.w3.org/2000/svg">
<path d="M11.1767 0C5.00397 0 0 5.00397 0 11.1767V105.34C0.0540934 105.412 0.108546 105.484 0.163358 105.555C0.215422 140.071 0.260292 171.033 0.274632 184.14C0.278659 187.821 2.07438 191.273 5.23207 193.163C19.8802 201.934 36.1499 208.606 52.7131 213.299C58.8778 215.045 64.8247 210.282 64.8247 203.875V76.0014C64.8247 69.8287 69.8287 64.8247 76.0014 64.8247H107.296C131.987 64.8247 152.003 84.8406 152.003 109.531C152.003 131.249 136.517 149.35 115.985 153.394C126.846 151.926 137.314 148.869 146.694 144.179C171.841 131.605 183.297 109.252 187.768 91.6487C192.239 74.0454 187.768 46.1038 172.121 27.1034C156.473 8.10309 130.767 0 106.737 0H11.1767Z" fill="url(#paint0_linear_158_183)"/>
<path d="M107.091 154.238H101.149C100.485 154.238 99.8355 154.296 99.2038 154.407C101.838 154.439 104.47 154.383 107.091 154.238Z" fill="url(#paint1_linear_158_183)"/>
<mask id="mask0_158_183" style="mask-type:alpha" maskUnits="userSpaceOnUse" x="0" y="0" width="190" height="214">
<path d="M11.1767 0C5.00397 0 0 5.00397 0 11.1767V105.34C0.0540934 105.412 0.108546 105.484 0.163358 105.555C0.215422 140.071 0.260292 171.033 0.274632 184.14C0.278659 187.821 2.07438 191.273 5.23207 193.163C19.8802 201.934 36.1499 208.606 52.7131 213.299C58.8778 215.045 64.8247 210.282 64.8247 203.875V76.0014C64.8247 69.8287 69.8287 64.8247 76.0014 64.8247H107.296C131.987 64.8247 152.003 84.8406 152.003 109.531C152.003 131.249 136.517 149.35 115.985 153.394C126.846 151.926 137.314 148.869 146.694 144.179C171.841 131.605 183.297 109.252 187.768 91.6487C192.239 74.0454 187.768 46.1038 172.121 27.1034C156.473 8.10309 130.767 0 106.737 0H11.1767Z" fill="url(#paint2_linear_158_183)"/>
<path d="M107.091 154.238H101.149C100.485 154.238 99.8355 154.296 99.2038 154.407C101.838 154.439 104.47 154.383 107.091 154.238Z" fill="url(#paint3_linear_158_183)"/>
</mask>
<g mask="url(#mask0_158_183)">
<g filter="url(#filter0_d_158_183)">
<path d="M172.121 27.1034C156.473 8.10309 130.767 0 106.737 0H112.046C142.782 0 186.371 21.5151 203.695 55.8834C221.019 90.2516 220.46 124.34 208.165 152.841C195.871 181.341 171.282 199.504 149.488 210.121C134.371 217.486 112.263 220.952 89.9722 219.774V165.415C89.9722 159.905 93.9583 155.327 99.2038 154.407C101.838 154.439 104.47 154.383 107.091 154.238H107.296C110.269 154.238 113.174 153.948 115.985 153.394C126.846 151.926 137.314 148.869 146.694 144.179C171.841 131.605 183.297 109.252 187.768 91.6487C192.239 74.0454 187.768 46.1038 172.121 27.1034Z" fill="url(#paint4_linear_158_183)"/>
</g>
</g>
<path d="M172.121 27.1034C156.473 8.10309 130.767 0 106.737 0H112.046C142.782 0 186.371 21.5151 203.695 55.8834C221.019 90.2516 220.46 124.34 208.165 152.841C195.871 181.341 171.282 199.504 149.488 210.121C136.521 216.438 118.412 219.887 99.4545 219.997C94.1368 220.028 89.9722 215.607 89.9722 210.289V165.415C89.9722 159.905 93.9583 155.327 99.2038 154.407C101.838 154.439 104.47 154.383 107.091 154.238H107.296C110.269 154.238 113.174 153.948 115.985 153.394C126.846 151.926 137.314 148.869 146.694 144.179C171.841 131.605 183.297 109.252 187.768 91.6487C192.239 74.0454 187.768 46.1038 172.121 27.1034Z" fill="url(#paint5_linear_158_183)"/>
<path d="M283.5 24.8C290.9 24.8 297.367 26.2667 302.9 29.2C308.433 32.1333 312.7 36.2667 315.7 41.6C318.767 46.8667 320.3 52.9667 320.3 59.9C320.3 66.7667 318.767 72.8667 315.7 78.2C312.7 83.5333 308.4 87.6667 302.8 90.6C297.267 93.5333 290.833 95 283.5 95H257.2V24.8H283.5ZM282.4 80.2C288.867 80.2 293.9 78.4333 297.5 74.9C301.1 71.3667 302.9 66.3667 302.9 59.9C302.9 53.4333 301.1 48.4 297.5 44.8C293.9 41.2 288.867 39.4 282.4 39.4H274.3V80.2H282.4ZM326.456 67C326.456 61.2667 327.523 56.2333 329.656 51.9C331.856 47.5667 334.823 44.2333 338.556 41.9C342.29 39.5667 346.456 38.4 351.056 38.4C354.99 38.4 358.423 39.2 361.356 40.8C364.356 42.4 366.656 44.5 368.256 47.1V39.2H385.356V95H368.256V87.1C366.59 89.7 364.256 91.8 361.256 93.4C358.323 95 354.89 95.8 350.956 95.8C346.423 95.8 342.29 94.6333 338.556 92.3C334.823 89.9 331.856 86.5333 329.656 82.2C327.523 77.8 326.456 72.7333 326.456 67ZM368.256 67.1C368.256 62.8333 367.056 59.4667 364.656 57C362.323 54.5333 359.456 53.3 356.056 53.3C352.656 53.3 349.756 54.5333 347.356 57C345.023 59.4 343.856 62.7333 343.856 67C343.856 71.2667 345.023 74.6667 347.356 77.2C349.756 79.6667 352.656 80.9 356.056 80.9C359.456 80.9 362.323 79.6667 364.656 77.2C367.056 74.7333 368.256 71.3667 368.256 67.1ZM418.927 38.4C422.861 38.4 426.294 39.2 429.227 40.8C432.227 42.4 434.527 44.5 436.127 47.1V39.2H453.227V94.9C453.227 100.033 452.194 104.667 450.127 108.8C448.127 113 445.027 116.333 440.827 118.8C436.694 121.267 431.527 122.5 425.327 122.5C417.061 122.5 410.361 120.533 405.227 116.6C400.094 112.733 397.161 107.467 396.427 100.8H413.327C413.861 102.933 415.127 104.6 417.127 105.8C419.127 107.067 421.594 107.7 424.527 107.7C428.061 107.7 430.861 106.667 432.927 104.6C435.061 102.6 436.127 99.3667 436.127 94.9V87C434.461 89.6 432.161 91.7333 429.227 93.4C426.294 95 422.861 95.8 418.927 95.8C414.327 95.8 410.161 94.6333 406.427 92.3C402.694 89.9 399.727 86.5333 397.527 82.2C395.394 77.8 394.327 72.7333 394.327 67C394.327 61.2667 395.394 56.2333 397.527 51.9C399.727 47.5667 402.694 44.2333 406.427 41.9C410.161 39.5667 414.327 38.4 418.927 38.4ZM436.127 67.1C436.127 62.8333 434.927 59.4667 432.527 57C430.194 54.5333 427.327 53.3 423.927 53.3C420.527 53.3 417.627 54.5333 415.227 57C412.894 59.4 411.727 62.7333 411.727 67C411.727 71.2667 412.894 74.6667 415.227 77.2C417.627 79.6667 420.527 80.9 423.927 80.9C427.327 80.9 430.194 79.6667 432.527 77.2C434.927 74.7333 436.127 71.3667 436.127 67.1ZM462.198 67C462.198 61.2667 463.265 56.2333 465.398 51.9C467.598 47.5667 470.565 44.2333 474.298 41.9C478.032 39.5667 482.198 38.4 486.798 38.4C490.732 38.4 494.165 39.2 497.098 40.8C500.098 42.4 502.398 44.5 503.998 47.1V39.2H521.098V95H503.998V87.1C502.332 89.7 499.998 91.8 496.998 93.4C494.065 95 490.632 95.8 486.698 95.8C482.165 95.8 478.032 94.6333 474.298 92.3C470.565 89.9 467.598 86.5333 465.398 82.2C463.265 77.8 462.198 72.7333 462.198 67ZM503.998 67.1C503.998 62.8333 502.798 59.4667 500.398 57C498.065 54.5333 495.198 53.3 491.798 53.3C488.398 53.3 485.498 54.5333 483.098 57C480.765 59.4 479.598 62.7333 479.598 67C479.598 71.2667 480.765 74.6667 483.098 77.2C485.498 79.6667 488.398 80.9 491.798 80.9C495.198 80.9 498.065 79.6667 500.398 77.2C502.798 74.7333 503.998 71.3667 503.998 67.1ZM567.47 38.6C574.003 38.6 579.203 40.7333 583.07 45C587.003 49.2 588.97 55 588.97 62.4V95H571.97V64.7C571.97 60.9667 571.003 58.0667 569.07 56C567.136 53.9333 564.536 52.9 561.27 52.9C558.003 52.9 555.403 53.9333 553.47 56C551.536 58.0667 550.57 60.9667 550.57 64.7V95H533.47V39.2H550.57V46.6C552.303 44.1333 554.636 42.2 557.57 40.8C560.503 39.3333 563.803 38.6 567.47 38.6ZM622.052 38.4C625.986 38.4 629.419 39.2 632.352 40.8C635.352 42.4 637.652 44.5 639.252 47.1V39.2H656.352V94.9C656.352 100.033 655.319 104.667 653.252 108.8C651.252 113 648.152 116.333 643.952 118.8C639.819 121.267 634.652 122.5 628.452 122.5C620.186 122.5 613.486 120.533 608.352 116.6C603.219 112.733 600.286 107.467 599.552 100.8H616.452C616.986 102.933 618.252 104.6 620.252 105.8C622.252 107.067 624.719 107.7 627.652 107.7C631.186 107.7 633.986 106.667 636.052 104.6C638.186 102.6 639.252 99.3667 639.252 94.9V87C637.586 89.6 635.286 91.7333 632.352 93.4C629.419 95 625.986 95.8 622.052 95.8C617.452 95.8 613.286 94.6333 609.552 92.3C605.819 89.9 602.852 86.5333 600.652 82.2C598.519 77.8 597.452 72.7333 597.452 67C597.452 61.2667 598.519 56.2333 600.652 51.9C602.852 47.5667 605.819 44.2333 609.552 41.9C613.286 39.5667 617.452 38.4 622.052 38.4ZM639.252 67.1C639.252 62.8333 638.052 59.4667 635.652 57C633.319 54.5333 630.452 53.3 627.052 53.3C623.652 53.3 620.752 54.5333 618.352 57C616.019 59.4 614.852 62.7333 614.852 67C614.852 71.2667 616.019 74.6667 618.352 77.2C620.752 79.6667 623.652 80.9 627.052 80.9C630.452 80.9 633.319 79.6667 635.652 77.2C638.052 74.7333 639.252 71.3667 639.252 67.1ZM310.7 147.4C310.7 151.467 309.767 155.2 307.9 158.6C306.033 161.933 303.167 164.633 299.3 166.7C295.433 168.767 290.633 169.8 284.9 169.8H274.3V195H257.2V124.8H284.9C290.5 124.8 295.233 125.767 299.1 127.7C302.967 129.633 305.867 132.3 307.8 135.7C309.733 139.1 310.7 143 310.7 147.4ZM283.6 156.2C286.867 156.2 289.3 155.433 290.9 153.9C292.5 152.367 293.3 150.2 293.3 147.4C293.3 144.6 292.5 142.433 290.9 140.9C289.3 139.367 286.867 138.6 283.6 138.6H274.3V156.2H283.6ZM316.202 167C316.202 161.267 317.269 156.233 319.402 151.9C321.602 147.567 324.569 144.233 328.302 141.9C332.036 139.567 336.202 138.4 340.802 138.4C344.736 138.4 348.169 139.2 351.102 140.8C354.102 142.4 356.402 144.5 358.002 147.1V139.2H375.102V195H358.002V187.1C356.336 189.7 354.002 191.8 351.002 193.4C348.069 195 344.636 195.8 340.702 195.8C336.169 195.8 332.036 194.633 328.302 192.3C324.569 189.9 321.602 186.533 319.402 182.2C317.269 177.8 316.202 172.733 316.202 167ZM358.002 167.1C358.002 162.833 356.802 159.467 354.402 157C352.069 154.533 349.202 153.3 345.802 153.3C342.402 153.3 339.502 154.533 337.102 157C334.769 159.4 333.602 162.733 333.602 167C333.602 171.267 334.769 174.667 337.102 177.2C339.502 179.667 342.402 180.9 345.802 180.9C349.202 180.9 352.069 179.667 354.402 177.2C356.802 174.733 358.002 171.367 358.002 167.1ZM421.473 138.6C428.007 138.6 433.207 140.733 437.073 145C441.007 149.2 442.973 155 442.973 162.4V195H425.973V164.7C425.973 160.967 425.007 158.067 423.073 156C421.14 153.933 418.54 152.9 415.273 152.9C412.007 152.9 409.407 153.933 407.473 156C405.54 158.067 404.573 160.967 404.573 164.7V195H387.473V139.2H404.573V146.6C406.307 144.133 408.64 142.2 411.573 140.8C414.507 139.333 417.807 138.6 421.473 138.6ZM476.056 138.4C479.99 138.4 483.423 139.2 486.356 140.8C489.356 142.4 491.656 144.5 493.256 147.1V139.2H510.356V194.9C510.356 200.033 509.323 204.667 507.256 208.8C505.256 213 502.156 216.333 497.956 218.8C493.823 221.267 488.656 222.5 482.456 222.5C474.19 222.5 467.49 220.533 462.356 216.6C457.223 212.733 454.29 207.467 453.556 200.8H470.456C470.99 202.933 472.256 204.6 474.256 205.8C476.256 207.067 478.723 207.7 481.656 207.7C485.19 207.7 487.99 206.667 490.056 204.6C492.19 202.6 493.256 199.367 493.256 194.9V187C491.59 189.6 489.29 191.733 486.356 193.4C483.423 195 479.99 195.8 476.056 195.8C471.456 195.8 467.29 194.633 463.556 192.3C459.823 189.9 456.856 186.533 454.656 182.2C452.523 177.8 451.456 172.733 451.456 167C451.456 161.267 452.523 156.233 454.656 151.9C456.856 147.567 459.823 144.233 463.556 141.9C467.29 139.567 471.456 138.4 476.056 138.4ZM493.256 167.1C493.256 162.833 492.056 159.467 489.656 157C487.323 154.533 484.456 153.3 481.056 153.3C477.656 153.3 474.756 154.533 472.356 157C470.023 159.4 468.856 162.733 468.856 167C468.856 171.267 470.023 174.667 472.356 177.2C474.756 179.667 477.656 180.9 481.056 180.9C484.456 180.9 487.323 179.667 489.656 177.2C492.056 174.733 493.256 171.367 493.256 167.1ZM519.327 167C519.327 161.267 520.394 156.233 522.527 151.9C524.727 147.567 527.694 144.233 531.427 141.9C535.161 139.567 539.327 138.4 543.927 138.4C547.861 138.4 551.294 139.2 554.227 140.8C557.227 142.4 559.527 144.5 561.127 147.1V139.2H578.227V195H561.127V187.1C559.461 189.7 557.127 191.8 554.127 193.4C551.194 195 547.761 195.8 543.827 195.8C539.294 195.8 535.161 194.633 531.427 192.3C527.694 189.9 524.727 186.533 522.527 182.2C520.394 177.8 519.327 172.733 519.327 167ZM561.127 167.1C561.127 162.833 559.927 159.467 557.527 157C555.194 154.533 552.327 153.3 548.927 153.3C545.527 153.3 542.627 154.533 540.227 157C537.894 159.4 536.727 162.733 536.727 167C536.727 171.267 537.894 174.667 540.227 177.2C542.627 179.667 545.527 180.9 548.927 180.9C552.327 180.9 555.194 179.667 557.527 177.2C559.927 174.733 561.127 171.367 561.127 167.1ZM624.598 138.6C631.132 138.6 636.332 140.733 640.198 145C644.132 149.2 646.098 155 646.098 162.4V195H629.098V164.7C629.098 160.967 628.132 158.067 626.198 156C624.265 153.933 621.665 152.9 618.398 152.9C615.132 152.9 612.532 153.933 610.598 156C608.665 158.067 607.698 160.967 607.698 164.7V195H590.598V139.2H607.698V146.6C609.432 144.133 611.765 142.2 614.698 140.8C617.632 139.333 620.932 138.6 624.598 138.6Z" fill="#00570E"/>
<defs>
<filter id="filter0_d_158_183" x="49.9722" y="-40" width="207.113" height="300" filterUnits="userSpaceOnUse" color-interpolation-filters="sRGB">
<feFlood flood-opacity="0" result="BackgroundImageFix"/>
<feColorMatrix in="SourceAlpha" type="matrix" values="0 0 0 0 0 0 0 0 0 0 0 0 0 0 0 0 0 0 127 0" result="hardAlpha"/>
<feOffset/>
<feGaussianBlur stdDeviation="20"/>
<feComposite in2="hardAlpha" operator="out"/>
<feColorMatrix type="matrix" values="0 0 0 0 0 0 0 0 0 0 0 0 0 0 0 0 0 0 0.45 0"/>
<feBlend mode="normal" in2="BackgroundImageFix" result="effect1_dropShadow_158_183"/>
<feBlend mode="normal" in="SourceGraphic" in2="effect1_dropShadow_158_183" result="shape"/>
</filter>
<linearGradient id="paint0_linear_158_183" x1="0" y1="0" x2="189.445" y2="9.14489e-06" gradientUnits="userSpaceOnUse">
<stop stop-color="#ADCE2D"/>
<stop offset="1" stop-color="#1D8E51"/>
</linearGradient>
<linearGradient id="paint1_linear_158_183" x1="0" y1="0" x2="189.445" y2="9.14489e-06" gradientUnits="userSpaceOnUse">
<stop stop-color="#ADCE2D"/>
<stop offset="1" stop-color="#1D8E51"/>
</linearGradient>
<linearGradient id="paint2_linear_158_183" x1="0" y1="0" x2="189.445" y2="9.14489e-06" gradientUnits="userSpaceOnUse">
<stop stop-color="#ADCE2D"/>
<stop offset="1" stop-color="#1D8E51"/>
</linearGradient>
<linearGradient id="paint3_linear_158_183" x1="0" y1="0" x2="189.445" y2="9.14489e-06" gradientUnits="userSpaceOnUse">
<stop stop-color="#ADCE2D"/>
<stop offset="1" stop-color="#1D8E51"/>
</linearGradient>
<linearGradient id="paint4_linear_158_183" x1="92.2075" y1="0" x2="216.827" y2="-1.72748e-06" gradientUnits="userSpaceOnUse">
<stop stop-color="#EE8F44"/>
<stop offset="1" stop-color="#FFBD3F"/>
</linearGradient>
<linearGradient id="paint5_linear_158_183" x1="92.2075" y1="0" x2="216.827" y2="-1.72748e-06" gradientUnits="userSpaceOnUse">
<stop stop-color="#EC7A1F"/>
<stop offset="1" stop-color="#FFBD3F"/>
</linearGradient>
</defs>
</svg>
