<svg width="800" height="500" viewBox="0 0 800 500" fill="none" xmlns="http://www.w3.org/2000/svg">
<path d="M150 160.001V347.501H196.41V207.795H196.943L223.349 347.501H259.09L285.495 207.795H286.029V347.501H332.438V160.001H261.49L241.486 271.083H240.952L220.948 160.001H150Z" fill="#00184B"/>
<path d="M359.327 160.001V347.501H405.737V231.692H406.27L439.344 347.501H493.755V160.001H447.346V275.547H446.812L414.805 160.001H359.327Z" fill="#00184B"/>
<path d="M570.251 240.883V195.19H579.586C592.389 195.19 598.79 202.805 598.79 218.037C598.79 225.915 597.101 231.692 593.722 235.369C590.522 239.045 585.809 240.883 579.586 240.883H570.251ZM520.64 160.001V347.501H570.251V276.072H587.588C608.036 276.072 623.506 271.258 633.997 261.629C644.666 251.825 650.001 237.207 650.001 217.774C650.001 209.546 648.934 201.93 646.8 194.927C644.666 187.924 641.288 181.885 636.664 176.808C632.219 171.555 626.529 167.441 619.594 164.465C612.659 161.489 604.48 160.001 595.056 160.001H520.64Z" fill="#00184B"/>
<path d="M800 44H0V81H800V44Z" fill="#00184B"/>
<path d="M800 0H0V37H800V0Z" fill="#DA0505"/>
<path d="M800 463H0V500H800V463Z" fill="#DA0505"/>
<path d="M800 419H0V456H800V419Z" fill="#00184B"/>
</svg>
