<svg width="150" height="97" viewBox="0 0 150 97" fill="none" xmlns="http://www.w3.org/2000/svg">
<path d="M3.30808 91.6941H0.451101C0.438571 92.5211 0.588938 93.2354 0.902203 93.8369C1.21547 94.4383 1.63524 94.9333 2.16153 95.3217C2.70034 95.7102 3.31434 95.9921 4.00352 96.1675C4.70524 96.3555 5.42575 96.4495 6.16505 96.4495C7.07978 96.4495 7.88174 96.343 8.57092 96.13C9.27264 95.9169 9.85531 95.6225 10.3189 95.2465C10.7951 94.8581 11.1522 94.4007 11.3903 93.8744C11.6284 93.3482 11.7474 92.778 11.7474 92.164C11.7474 91.4122 11.5845 90.7982 11.2587 90.322C10.9455 89.8333 10.5696 89.4449 10.131 89.1567C9.69241 88.8685 9.24758 88.6617 8.79648 88.5364C8.3579 88.3986 8.01331 88.3046 7.7627 88.2545C6.92315 88.0414 6.24023 87.866 5.71395 87.7282C5.2002 87.5903 4.79295 87.4525 4.49222 87.3147C4.20401 87.1768 4.00979 87.0265 3.90954 86.8636C3.8093 86.7007 3.75918 86.4877 3.75918 86.2245C3.75918 85.9363 3.82183 85.6982 3.94714 85.5103C4.07244 85.3223 4.22907 85.1657 4.41703 85.0404C4.61752 84.9151 4.83681 84.8274 5.07489 84.7772C5.31297 84.7271 5.55105 84.702 5.78913 84.702C6.15252 84.702 6.48458 84.7334 6.78532 84.796C7.09858 84.8587 7.37425 84.9652 7.61233 85.1156C7.85041 85.2659 8.03837 85.4727 8.17621 85.7358C8.32658 85.999 8.41429 86.331 8.43935 86.732H11.2963C11.2963 85.9551 11.146 85.2973 10.8452 84.7584C10.557 84.2071 10.1623 83.756 9.66109 83.4051C9.15986 83.0543 8.58346 82.8036 7.93186 82.6533C7.2928 82.4904 6.62242 82.4089 5.9207 82.4089C5.31924 82.4089 4.71777 82.4904 4.1163 82.6533C3.51483 82.8162 2.97602 83.0668 2.49985 83.4051C2.02369 83.7435 1.63524 84.1695 1.33451 84.6833C1.0463 85.1845 0.902203 85.7797 0.902203 86.4689C0.902203 87.0829 1.01498 87.6091 1.24053 88.0477C1.47861 88.4738 1.78561 88.8309 2.16153 89.1191C2.53744 89.4073 2.96349 89.6454 3.43965 89.8333C3.91581 90.0087 4.4045 90.1591 4.90573 90.2844C5.39442 90.4223 5.87685 90.5476 6.35301 90.6603C6.82917 90.7731 7.25521 90.9047 7.63113 91.0551C8.00705 91.2054 8.30778 91.3934 8.53333 91.6189C8.77141 91.8445 8.89045 92.139 8.89045 92.5023C8.89045 92.8407 8.80274 93.1226 8.62731 93.3481C8.45188 93.5612 8.2326 93.7303 7.96946 93.8556C7.70631 93.981 7.42438 94.0687 7.12364 94.1188C6.82291 94.1564 6.54097 94.1752 6.27783 94.1752C5.88938 94.1752 5.51346 94.1313 5.15007 94.0436C4.78669 93.9433 4.46716 93.7992 4.19148 93.6113C3.92834 93.4108 3.71532 93.1539 3.55242 92.8407C3.38953 92.5274 3.30808 92.1452 3.30808 91.6941Z" fill="#E30613"/>
<path d="M27.0363 90.9611L28.7843 86.0366H28.8219L30.5135 90.9611H27.0363ZM27.3182 82.7285L22.2433 96.1487H25.2131L26.2656 93.1602H31.2841L32.2991 96.1487H35.3628L30.3443 82.7285H27.3182Z" fill="#E30613"/>
<path d="M47.9142 85.2095V96.1487H50.8652V85.2095H54.8875V82.7285H43.8919V85.2095H47.9142Z" fill="#E30613"/>
<path d="M68.5959 91.6941H65.7389C65.7264 92.5211 65.8767 93.2354 66.19 93.8369C66.5033 94.4383 66.923 94.9333 67.4493 95.3217C67.9881 95.7102 68.6021 95.9921 69.2913 96.1675C69.993 96.3555 70.7135 96.4495 71.4529 96.4495C72.3676 96.4495 73.1695 96.343 73.8587 96.13C74.5604 95.9169 75.1431 95.6225 75.6067 95.2465C76.0829 94.8581 76.44 94.4007 76.6781 93.8744C76.9162 93.3482 77.0352 92.778 77.0352 92.164C77.0352 91.4122 76.8723 90.7982 76.5465 90.322C76.2333 89.8333 75.8574 89.4449 75.4188 89.1567C74.9802 88.8685 74.5354 88.6617 74.0843 88.5364C73.6457 88.3986 73.3011 88.3046 73.0505 88.2545C72.211 88.0414 71.528 87.866 71.0018 87.7282C70.488 87.5903 70.0808 87.4525 69.78 87.3147C69.4918 87.1768 69.2976 87.0265 69.1973 86.8636C69.0971 86.7007 69.047 86.4877 69.047 86.2245C69.047 85.9363 69.1096 85.6982 69.2349 85.5103C69.3602 85.3223 69.5169 85.1657 69.7048 85.0404C69.9053 84.9151 70.1246 84.8274 70.3627 84.7772C70.6008 84.7271 70.8389 84.702 71.0769 84.702C71.4403 84.702 71.7724 84.7334 72.0731 84.796C72.3864 84.8587 72.6621 84.9652 72.9001 85.1156C73.1382 85.2659 73.3262 85.4727 73.464 85.7358C73.6144 85.999 73.7021 86.331 73.7272 86.732H76.5841C76.5841 85.9551 76.4338 85.2973 76.133 84.7584C75.8448 84.2071 75.4501 83.756 74.9489 83.4051C74.4477 83.0543 73.8713 82.8036 73.2197 82.6533C72.5806 82.4904 71.9102 82.4089 71.2085 82.4089C70.607 82.4089 70.0056 82.4904 69.4041 82.6533C68.8026 82.8162 68.2638 83.0668 67.7877 83.4051C67.3115 83.7435 66.923 84.1695 66.6223 84.6833C66.3341 85.1845 66.19 85.7797 66.19 86.4689C66.19 87.0829 66.3028 87.6091 66.5283 88.0477C66.7664 88.4738 67.0734 88.8309 67.4493 89.1191C67.8252 89.4073 68.2513 89.6454 68.7274 89.8333C69.2036 90.0087 69.6923 90.1591 70.1935 90.2844C70.6822 90.4223 71.1647 90.5476 71.6408 90.6603C72.117 90.7731 72.543 90.9047 72.9189 91.0551C73.2948 91.2054 73.5956 91.3934 73.8211 91.6189C74.0592 91.8445 74.1783 92.139 74.1783 92.5023C74.1783 92.8407 74.0905 93.1226 73.9151 93.3481C73.7397 93.5612 73.5204 93.7303 73.2573 93.8556C72.9941 93.981 72.7122 94.0687 72.4114 94.1188C72.1107 94.1564 71.8288 94.1752 71.5656 94.1752C71.1772 94.1752 70.8013 94.1313 70.4379 94.0436C70.0745 93.9433 69.755 93.7992 69.4793 93.6113C69.2161 93.4108 69.0031 93.1539 68.8402 92.8407C68.6773 92.5274 68.5959 92.1452 68.5959 91.6941Z" fill="#E30613"/>
<path d="M92.3241 90.9611L94.0721 86.0366H94.1097L95.8013 90.9611H92.3241ZM92.606 82.7285L87.5311 96.1487H90.5009L91.5534 93.1602H96.572L97.5869 96.1487H100.651L95.6321 82.7285H92.606Z" fill="#E30613"/>
<path d="M120.905 87.2395H123.762C123.674 86.4626 123.461 85.7734 123.122 85.1719C122.784 84.5705 122.352 84.0692 121.826 83.6683C121.312 83.2548 120.723 82.9415 120.059 82.7285C119.407 82.5155 118.712 82.4089 117.972 82.4089C116.945 82.4089 116.018 82.5906 115.191 82.954C114.376 83.3174 113.687 83.8186 113.123 84.4577C112.559 85.0968 112.127 85.8486 111.826 86.7132C111.525 87.5653 111.375 88.4925 111.375 89.495C111.375 90.4724 111.525 91.3871 111.826 92.2392C112.127 93.0788 112.559 93.8118 113.123 94.4383C113.687 95.0648 114.376 95.5598 115.191 95.9232C116.018 96.2741 116.945 96.4495 117.972 96.4495C118.799 96.4495 119.557 96.3242 120.247 96.0736C120.936 95.823 121.537 95.4596 122.051 94.9834C122.565 94.5072 122.978 93.9308 123.292 93.2542C123.605 92.5775 123.799 91.8194 123.874 90.9799H121.017C120.905 91.8821 120.591 92.6089 120.078 93.1602C119.576 93.7115 118.875 93.9872 117.972 93.9872C117.308 93.9872 116.744 93.8619 116.281 93.6113C115.817 93.3481 115.441 93.0036 115.153 92.5775C114.865 92.1515 114.652 91.6753 114.514 91.149C114.389 90.6102 114.326 90.0589 114.326 89.495C114.326 88.9061 114.389 88.3359 114.514 87.7846C114.652 87.2332 114.865 86.7445 115.153 86.3185C115.441 85.8799 115.817 85.5353 116.281 85.2847C116.744 85.0216 117.308 84.89 117.972 84.89C118.336 84.89 118.68 84.9527 119.006 85.078C119.344 85.1907 119.645 85.3536 119.908 85.5667C120.171 85.7797 120.391 86.0303 120.566 86.3185C120.742 86.5942 120.854 86.9012 120.905 87.2395Z" fill="#E30613"/>
<path d="M138.407 89.495C138.407 88.9061 138.47 88.3359 138.595 87.7846C138.733 87.2332 138.946 86.7445 139.234 86.3185C139.523 85.8799 139.899 85.5353 140.362 85.2847C140.826 85.0216 141.39 84.89 142.054 84.89C142.718 84.89 143.282 85.0216 143.746 85.2847C144.209 85.5353 144.585 85.8799 144.873 86.3185C145.161 86.7445 145.368 87.2332 145.494 87.7846C145.631 88.3359 145.7 88.9061 145.7 89.495C145.7 90.0589 145.631 90.6102 145.494 91.149C145.368 91.6753 145.161 92.1515 144.873 92.5775C144.585 93.0036 144.209 93.3481 143.746 93.6113C143.282 93.8619 142.718 93.9872 142.054 93.9872C141.39 93.9872 140.826 93.8619 140.362 93.6113C139.899 93.3481 139.523 93.0036 139.234 92.5775C138.946 92.1515 138.733 91.6753 138.595 91.149C138.47 90.6102 138.407 90.0589 138.407 89.495ZM135.457 89.495C135.457 90.4724 135.607 91.3871 135.908 92.2392C136.208 93.0788 136.641 93.8118 137.205 94.4383C137.768 95.0648 138.458 95.5598 139.272 95.9232C140.099 96.2741 141.026 96.4495 142.054 96.4495C143.094 96.4495 144.021 96.2741 144.836 95.9232C145.65 95.5598 146.339 95.0648 146.903 94.4383C147.467 93.8118 147.899 93.0788 148.2 92.2392C148.501 91.3871 148.651 90.4724 148.651 89.495C148.651 88.4925 148.501 87.5653 148.2 86.7132C147.899 85.8486 147.467 85.0968 146.903 84.4577C146.339 83.8186 145.65 83.3174 144.836 82.954C144.021 82.5906 143.094 82.4089 142.054 82.4089C141.026 82.4089 140.099 82.5906 139.272 82.954C138.458 83.3174 137.768 83.8186 137.205 84.4577C136.641 85.0968 136.208 85.8486 135.908 86.7132C135.607 87.5653 135.457 88.4925 135.457 89.495Z" fill="#E30613"/>
<path fill-rule="evenodd" clip-rule="evenodd" d="M82.9327 56.4136C81.5067 56.6729 31.2244 65.3421 4.97665 69.8658C4.53595 69.0239 3.65406 68.4495 2.63802 68.4495C1.18108 68.4495 0 69.6306 0 71.0875C0 72.5445 1.18108 73.7256 2.63802 73.7256C3.24256 73.7256 3.79961 73.5222 4.24449 73.1802C37.8697 70.4147 104.885 64.8858 108.818 64.4925C113.765 63.9979 114.589 63.3384 115.413 62.6789C116.073 62.1513 128.219 53.0061 134.209 48.4995C138.606 48.3896 147.729 48.1368 149.048 48.0049C150.697 47.84 149.872 45.6966 149.048 45.5317C148.224 45.3669 144.267 44.8722 138.991 44.3776C133.715 43.883 126.295 43.7181 124.152 44.3776C122.437 44.9052 110.907 47.895 105.356 49.3239C108.818 35.9689 115.875 8.76433 116.403 6.78582C117.062 4.31267 114.424 3.65316 112.775 3.81804C112.029 3.89266 107.939 4.23748 103.364 4.62318L103.362 4.62334C97.8296 5.08982 91.5878 5.61606 89.6926 5.79655C86.9227 6.06036 86.0104 6.89573 85.9005 7.28044C85.9005 7.61019 86.0654 8.2697 86.7249 8.2697H112.116L97.1121 43.7181C88.9232 30.6929 72.3147 4.27969 71.3914 2.82878C71.2394 2.58997 71.0989 2.34829 70.9615 2.11204C70.0555 0.554126 69.2867 -0.767976 66.2802 0.520515C63.5355 1.69685 36.4954 14.5189 22.9567 20.9548C22.6645 20.7534 22.3103 20.6354 21.9285 20.6354C20.9269 20.6354 20.1149 21.4474 20.1149 22.4491C20.1149 23.4507 20.9269 24.2627 21.9285 24.2627C22.5548 24.2627 23.1069 23.9453 23.4328 23.4625C37.2399 17.915 64.836 6.68354 65.6207 6.29119C66.61 5.79656 67.7641 5.30193 68.2587 6.78582C68.7534 8.2697 82.9327 49.4888 83.922 52.2917C84.9112 55.0946 84.7464 56.0838 82.9327 56.4136ZM112.386 58.1675C111.872 58.5453 111.763 59.2677 112.14 59.7811C112.518 60.2945 113.241 60.4045 113.754 60.0267L128.433 49.2259C128.946 48.8481 129.056 48.1257 128.678 47.6123C128.301 47.0989 127.578 46.9889 127.065 47.3667L112.386 58.1675ZM96.203 47.6039C97.3351 50.2889 96.0761 53.3832 93.3912 54.5153C90.7062 55.6473 87.6119 54.3884 86.4798 51.7034C85.3478 49.0184 73.6997 12.5565 73.6997 12.5565C73.6997 12.5565 95.071 44.9189 96.203 47.6039Z" fill="#273487"/>
</svg>
