<svg xmlns="http://www.w3.org/2000/svg" xmlns:xlink="http://www.w3.org/1999/xlink" viewBox="0 0 133 74" width="133"  height="74" >
  <defs>
    <style>
      .cls-1 {
        clip-path: url(#clip-Logo_Web);
      }

      .cls-2 {
        fill: #009237;
      }

      .cls-3 {
        fill: #01375b;
      }
    </style>
    <clipPath id="clip-Logo_Web">
      <rect width="133" height="74"/>
    </clipPath>
  </defs>
  <g id="Logo_Web" data-name="Logo Web" class="cls-1">
    <g id="Logo_Master" data-name="Logo Master" transform="translate(-304 -142)">
      <path id="B" class="cls-2" d="M0,48.936H0L7.987,0,30.258.308l.17,0A7.264,7.264,0,0,1,33,.808a6.87,6.87,0,0,1,2.694,1.871,7.752,7.752,0,0,1,1.664,3.29,14.223,14.223,0,0,1,.176,5.224,15.27,15.27,0,0,1-1.719,5.493,11.248,11.248,0,0,1-2.635,3.205,10.187,10.187,0,0,1-2.414,1.5,6.458,6.458,0,0,1-1.057.37v.55h0a7,7,0,0,1,1.184.4,8.726,8.726,0,0,1,2.48,1.607,7.934,7.934,0,0,1,2.157,3.423,12.153,12.153,0,0,1,.216,5.848,25.1,25.1,0,0,1-1.791,6.08,13.247,13.247,0,0,1-2.739,4.018A11.8,11.8,0,0,1,27.6,46.1a19.484,19.484,0,0,1-4.435,1.273L0,48.936ZM14.127,30.394l-1.406,8.112,9.463-.266a5.71,5.71,0,0,0,1.98-.664,4.791,4.791,0,0,0,1.424-1.219,4.9,4.9,0,0,0,.988-3.477c-.22-2.435-2.6-2.466-3.878-2.483l-.2,0Zm3.941-22.14-1.322,7.995c.014,0,1.788.117,3.7.117a18.231,18.231,0,0,0,4-.31,4.738,4.738,0,0,0,3.4-3.367,5.063,5.063,0,0,0,.147-1.8c-.24-2.565-2.541-2.619-3.408-2.639H18.068Z" transform="translate(362.167 159.655)"/>
      <path id="Path_187" data-name="Path 187" class="cls-2" d="M11.2,0h2.219l-8.2,48.881H3Z" transform="translate(325.503 159.796)"/>
      <path id="Path_185" data-name="Path 185" class="cls-2" d="M-4.8,0h6.82l-8.2,48.881H-13Z" transform="translate(350.129 159.796)"/>
      <path id="oval_" data-name="oval " class="cls-3" d="M89.658,70.172a73.584,73.584,0,0,1-20.15-3.192A143.666,143.666,0,0,1,44.455,56.8,144.283,144.283,0,0,1,23.15,43.631a103.319,103.319,0,0,1-8.227-6.874,75.149,75.149,0,0,1-6.506-6.835A49.982,49.982,0,0,1,3.71,23.3,30.39,30.39,0,0,1,.88,17.065,17.742,17.742,0,0,1,0,11.391,11.835,11.835,0,0,1,1.161,6.452,8.777,8.777,0,0,1,3.471,3.54,12.546,12.546,0,0,1,7,1.534,28.64,28.64,0,0,1,17.124,0,68.707,68.707,0,0,1,27.945.964,117.338,117.338,0,0,1,40.182,3.672a170.562,170.562,0,0,1,25.893,9.546c.948.438,1.915.9,2.874,1.382A138.036,138.036,0,0,0,51.5,9.984,82.8,82.8,0,0,0,36.128,8.339a32.752,32.752,0,0,0-10.5,1.438c-2.92,1.009-4.953,2.537-6.042,4.542a8.458,8.458,0,0,0-1,3.86,13.085,13.085,0,0,0,.746,4.46,30.593,30.593,0,0,0,5.441,9.216A72.849,72.849,0,0,0,34.9,41.846,123.259,123.259,0,0,0,49,51.835a160.881,160.881,0,0,0,17.4,9.208c2.526,1.149,5.04,2.158,7.474,3A69.051,69.051,0,0,0,80.7,66.025a52.1,52.1,0,0,0,11.778,1.433h0A38.281,38.281,0,0,0,104,65.762a31.568,31.568,0,0,0,7.81-3.669,7.571,7.571,0,0,1-1.139,1.281,24.674,24.674,0,0,1-8.886,5.027A38.833,38.833,0,0,1,89.658,70.172Z" transform="translate(305.397 143.167)"/>
      <path id="S" class="cls-2" d="M4012.809,4578.779s-30.508-1.3-21.6,26.81c0,0,4.783,10.06-8.9,11.526l-.826,11.078s12.857,1.021,19.008-5.458c5.318-5.5,6.848-11.014,5.324-16.124-.448-2.725-8.909-14.441,4.942-15.577Z" transform="translate(-3581.457 -4420.19)"/>
      <path id="Path_184" data-name="Path 184" class="cls-2" d="M-19.8,0H-8.664l-8.2,48.881H-28Z" transform="translate(373.755 159.796)"/>
      <path id="Path_186" data-name="Path 186" class="cls-2" d="M5.2,0H9.147L.944,48.881H-3Z" transform="translate(334.954 159.796)"/>
      <path id="Path_188" data-name="Path 188" class="cls-2" d="M11.2,0h2.219l-8.2,48.881H3Z" transform="translate(322.34 159.796)"/>
    </g>
  </g>
</svg>