<svg width="200" height="69" viewBox="0 0 200 69" fill="none" xmlns="http://www.w3.org/2000/svg">
<path d="M14.0704 0H0V62.8141H14.0704V57.2864H7.53769V34.1709H14.0704V28.6432H7.53769V6.03015H14.0704V0Z" fill="#EC9522"/>
<path d="M17.0854 0H31.1558V62.8141H17.0854V57.2864H23.6181V34.1709H17.0854V28.6432H23.6181V6.03015H17.0854V0Z" fill="#EC9522"/>
<path fill-rule="evenodd" clip-rule="evenodd" d="M79.6197 14.2099C79.0907 14.405 78.3612 15.0664 78.084 15.6025C77.8429 16.0688 77.7518 17.309 77.9211 17.8219C78.5215 19.6412 80.7692 20.3582 82.3293 19.228C83.289 18.5329 83.729 17.3129 83.4127 16.2248C83.0305 14.9102 82.1045 14.1427 80.8208 14.0768C80.342 14.0521 79.9208 14.0989 79.6197 14.2099ZM133.663 15.9305C132.448 16.0473 131.392 16.1642 131.316 16.1902C131.207 16.2275 131.177 17.9945 131.177 24.5287V32.8199L131.636 34.6682C131.888 35.6846 132.107 36.5323 132.123 36.5518C132.149 36.5855 137.061 36.0156 137.112 35.973C137.125 35.962 137.038 35.1103 136.92 34.0804C136.725 32.3862 136.704 31.4209 136.703 23.9499L136.701 15.692L136.287 15.705C136.059 15.7121 134.878 15.8136 133.663 15.9305ZM160.177 15.9305C158.962 16.0473 157.905 16.1643 157.828 16.1905C157.718 16.2281 157.696 18.1562 157.718 25.5486L157.746 34.8592L158.354 35.1578C159.154 35.5511 160.793 36.0721 162.165 36.3698C163.817 36.7279 166.672 36.7292 167.905 36.3723C170.656 35.5759 172.608 33.6325 173.383 30.9185C173.719 29.7425 173.798 27.6282 173.551 26.4111C172.883 23.1102 170.771 21.2157 167.762 21.2157C166.206 21.2157 164.972 21.7687 163.879 22.9556C163.53 23.3354 163.225 23.6461 163.202 23.6461C163.179 23.6462 163.176 21.8565 163.197 19.669L163.234 15.692L162.81 15.705C162.577 15.7121 161.392 15.8136 160.177 15.9305ZM195.749 15.9305C194.534 16.0473 193.478 16.1642 193.402 16.1902C193.293 16.2275 193.264 17.9945 193.264 24.5287V32.8199L193.722 34.6682C193.974 35.6846 194.193 36.5323 194.209 36.5518C194.235 36.5855 199.147 36.0156 199.198 35.973C199.211 35.962 199.125 35.1103 199.006 34.0804C198.811 32.3862 198.79 31.4209 198.789 23.9499L198.787 15.692L198.373 15.705C198.145 15.7121 196.964 15.8136 195.749 15.9305ZM119.062 16.7317C114.769 17.5524 111.666 20.4647 110.782 24.5033C110.532 25.6479 110.533 28.0318 110.785 29.1964C111.798 33.8869 115.712 36.6797 121.276 36.6815C123.444 36.6823 125.659 36.2767 127.587 35.5259L128.471 35.1817L128.529 26.9603L128.168 26.9626C127.97 26.9638 126.963 27.0377 125.93 27.1268C124.897 27.2159 124.015 27.2895 123.969 27.2903C123.923 27.2911 123.886 28.4564 123.886 29.8799V32.4681L123.259 32.5464C122.427 32.6504 120.885 32.5331 120.13 32.3087C117.671 31.5772 116.378 29.6763 116.378 26.7946C116.378 23.6958 118.052 21.5367 120.932 20.9222C122.426 20.6034 124.784 20.8487 126.457 21.4968C126.641 21.568 126.651 21.4456 126.623 19.5006L126.593 17.4285L126.096 17.2753C125.822 17.191 125.151 17.0215 124.604 16.8987C123.295 16.6047 120.213 16.5118 119.062 16.7317ZM35.1759 20.8843H40.6996V36.3506H46.4442V20.8843H51.8574V16.9072H35.1759V20.8843ZM181.332 21.1752C180.296 21.3065 178.431 21.6762 177.714 21.8922C176.916 22.1328 176.913 22.135 176.906 22.5309C176.903 22.7493 176.858 23.5246 176.808 24.2537C176.758 24.9828 176.729 25.592 176.742 25.6073C176.756 25.6227 177.061 25.5341 177.42 25.4105C178.703 24.9689 180.215 24.7202 181.664 24.7121C183.321 24.7027 183.879 24.841 184.438 25.3999C184.799 25.7612 184.854 25.8904 184.925 26.5542C184.969 26.9654 184.983 27.3232 184.957 27.3495C184.931 27.3758 184.49 27.3491 183.977 27.2901C182.595 27.1313 180.664 27.1585 179.698 27.3505C178.452 27.5982 177.173 28.2577 176.491 29.0042C175.56 30.0231 175.177 31.5456 175.471 33.0581C175.903 35.2731 178.018 36.7925 180.67 36.7925C182.212 36.7925 183.48 36.2996 184.54 35.2882C184.883 34.9611 185.192 34.6935 185.227 34.6935C185.262 34.6935 185.376 35.0854 185.479 35.5645C185.583 36.0436 185.702 36.4921 185.745 36.5611C185.802 36.6537 186.468 36.6227 188.273 36.4431C190.598 36.212 190.723 36.1879 190.722 35.9713C190.721 35.8457 190.647 35.1215 190.557 34.362C190.444 33.4065 190.392 31.8408 190.391 29.2803C190.388 25.3824 190.32 24.6946 189.849 23.7808C189.267 22.6507 188.097 21.8534 186.402 21.4302C185.689 21.2524 185.041 21.1905 183.597 21.1625C182.564 21.1425 181.545 21.1483 181.332 21.1752ZM95.0121 21.3909C94.0574 21.622 93.114 22.1723 92.3323 22.954C91.9516 23.3347 91.6187 23.6461 91.5925 23.6461C91.5662 23.6461 91.4594 23.2065 91.3551 22.6693C91.2507 22.1321 91.1327 21.6407 91.0928 21.5774C91.0231 21.4667 86.1724 21.9945 86.0397 22.1272C86.0092 22.1576 86.0857 22.9717 86.2097 23.9362C86.4093 25.4886 86.4352 26.3018 86.4354 31.0202L86.4356 36.3506H91.9593V26.5617L92.2849 26.0483C92.7695 25.2841 93.3724 24.9304 94.267 24.8852C95.1666 24.8397 95.6565 25.072 95.9861 25.7C96.2035 26.1144 96.2139 26.3368 96.2443 31.2412L96.2762 36.3506H101.791L101.791 31.1859C101.79 25.8759 101.741 25.104 101.337 24.0249C100.865 22.7633 99.4664 21.6546 97.9471 21.3378C97.1619 21.174 95.8069 21.1986 95.0121 21.3909ZM145.52 21.3287C142.526 21.834 140.407 23.6003 139.493 26.3527C139.229 27.1468 139.199 27.4047 139.193 28.8936C139.189 30.1407 139.235 30.7283 139.381 31.2688C139.917 33.2598 141.278 34.9513 143.007 35.7749C144.283 36.3829 145.128 36.5766 146.809 36.6456C147.996 36.6944 148.438 36.6649 149.35 36.4761C152.3 35.8659 154.364 33.9632 155.121 31.1583C155.426 30.0247 155.393 27.6014 155.056 26.5184C154.154 23.6153 152.063 21.8358 148.964 21.3337C148.148 21.2015 146.29 21.1988 145.52 21.3287ZM80.0558 21.5246L77.9292 21.6913V36.3506H83.3424V21.3262L82.7624 21.3421C82.4434 21.3508 81.2254 21.433 80.0558 21.5246ZM49.7023 21.6833C49.7291 21.7603 50.55 24.8309 51.5265 28.5069C52.503 32.1829 53.3762 35.4523 53.467 35.7721L53.632 36.3537L60.7443 36.2953L61.6574 31.9316C62.1596 29.5316 62.6281 27.2324 62.6986 26.8222C62.769 26.412 62.8595 26.0765 62.8996 26.0765C62.9395 26.0765 63.2578 27.481 63.6067 29.1974C63.9556 30.9138 64.4251 33.2131 64.65 34.3068L65.059 36.2953L72.168 36.3537L72.334 35.7721C72.6811 34.5559 76.0511 21.7568 76.0511 21.6545C76.0511 21.5879 75.0088 21.5471 73.3046 21.5471H70.558L69.4933 26.8878C68.9076 29.8252 68.4284 32.3357 68.4284 32.4667C68.4284 32.8629 68.2224 32.7338 68.1474 32.2907C68.1089 32.0629 67.62 29.5647 67.0611 26.7394L66.0447 21.6023H59.8763L58.7977 26.8498C58.2043 29.736 57.7175 32.2341 57.7157 32.4011C57.7109 32.8466 57.5137 32.7715 57.4255 32.2907C57.3836 32.0629 56.8939 29.5647 56.3373 26.7394L55.3253 21.6023L52.4893 21.5728C50.2385 21.5494 49.6635 21.5723 49.7023 21.6833ZM148.141 24.9592C148.709 25.2173 149.299 25.903 149.548 26.5938C149.989 27.8191 149.988 29.9569 149.546 31.208C149.279 31.9669 148.507 32.7545 147.864 32.926C145.851 33.4623 144.399 31.5147 144.578 28.5167C144.653 27.2518 144.864 26.5041 145.347 25.7899C145.993 24.8338 147.125 24.4975 148.141 24.9592ZM166.727 25.0705C167.747 25.5913 168.207 26.7704 168.197 28.8384C168.185 31.0816 167.549 32.5065 166.259 33.176C165.666 33.4834 164.475 33.5044 163.739 33.2205L163.215 33.0181V30.1088C163.215 27.4802 163.235 27.1515 163.428 26.7021C163.691 26.089 164.338 25.3577 164.864 25.0797C165.38 24.807 166.202 24.8029 166.727 25.0705ZM184.854 29.7687C184.933 29.818 184.978 30.2703 184.978 31.0292C184.978 32.1895 184.971 32.2208 184.636 32.6277C183.647 33.827 181.761 33.8572 181.057 32.6849C180.894 32.4143 180.838 32.1283 180.842 31.5922C180.849 30.673 181.101 30.2031 181.777 29.8514C182.23 29.6159 182.376 29.5982 183.5 29.6429C184.176 29.6698 184.785 29.7263 184.854 29.7687Z" fill="#32327C"/>
<path fill-rule="evenodd" clip-rule="evenodd" d="M35.1759 62.3014H48.6537V58.3243H40.81V54.4578H47.9908V50.5912H40.81L40.802 49.2931C40.7975 48.5791 40.7568 47.734 40.7113 47.4151L40.6287 46.8351H47.9908V42.858H35.1759V62.3014ZM153.218 62.3014H158.852V42.858H153.218V62.3014ZM78.0396 47.2428C76.9175 47.4306 75.8256 48.0409 75.0318 48.9239C74.7452 49.2426 74.4683 49.4772 74.4164 49.4451C74.3646 49.413 74.2316 48.9902 74.1208 48.5053C74.0101 48.0206 73.886 47.5697 73.8451 47.5034C73.7678 47.3785 68.9035 47.893 68.7316 48.0443C68.6857 48.0848 68.7727 49.0596 68.9249 50.2107C69.1983 52.2779 69.2017 52.4007 69.2017 60.23C69.2017 67.7059 69.2127 68.1564 69.3951 68.1552C69.5013 68.1545 70.6821 68.0556 72.0188 67.9355C73.3555 67.8154 74.4914 67.7166 74.5431 67.7159C74.5947 67.7151 74.6196 66.4474 74.5984 64.8988C74.5646 62.4352 74.5805 62.0894 74.7254 62.1339C75.9279 62.503 76.4287 62.5738 77.8187 62.571C79.1451 62.5684 79.4104 62.5347 80.2176 62.2655C81.3124 61.9004 82.5916 61.0724 83.2852 60.2798C83.8955 59.5824 84.6015 58.2574 84.8334 57.3738C85.6486 54.2688 84.9111 50.6365 83.0885 48.7793C81.9993 47.6696 80.7257 47.153 79.1488 47.1815C78.6906 47.1898 78.1915 47.2174 78.0396 47.2428ZM105.407 47.2743C103.689 47.5854 102.294 48.3019 101.119 49.4771C99.688 50.9082 99.0526 52.3848 98.9493 54.5187C98.769 58.2453 100.605 60.9924 104.033 62.1267C105.553 62.6297 107.944 62.7688 109.856 62.4654C111.002 62.2837 112.99 61.6949 113.148 61.4905C113.246 61.3649 113.555 58.2303 113.478 58.153C113.456 58.1313 113.111 58.2325 112.711 58.3778C111.071 58.9729 108.325 59.1917 106.984 58.8341C105.446 58.4243 104.532 57.494 104.285 56.0872L104.212 55.673H113.697L113.765 55.3692C113.945 54.5741 113.962 52.6166 113.797 51.8431C113.324 49.6264 111.796 48.0708 109.469 47.4361C108.705 47.2276 106.213 47.1284 105.407 47.2743ZM120.517 47.2455C117.222 47.7011 115.25 49.8132 115.716 52.3866C116.048 54.2185 117.165 55.2442 120.145 56.4563C122.256 57.3149 122.825 57.9276 122.223 58.6934C121.637 59.4382 119.534 59.4647 116.825 58.7614C116.132 58.5813 115.555 58.4465 115.544 58.462C115.532 58.4774 115.577 59.2606 115.644 60.2024L115.766 61.9147L116.507 62.0999C117.646 62.3842 119.799 62.6328 121.125 62.6328C123.583 62.6328 125.591 61.952 126.714 60.7376C127.827 59.5329 128.163 57.6566 127.514 56.2624C126.98 55.1156 125.86 54.3291 123.129 53.1853C121.624 52.5548 121.014 52.0559 121.014 51.4561C121.014 50.9619 121.342 50.6493 122.045 50.473C123.042 50.2234 125.037 50.5239 126.475 51.1402C126.769 51.2666 127.032 51.3484 127.059 51.3217C127.085 51.2952 127.063 50.5446 127.009 49.6536C126.935 48.4462 126.87 48.0085 126.752 47.9348C126.537 47.8013 124.895 47.4201 123.941 47.2825C123.191 47.1742 121.189 47.1525 120.517 47.2455ZM134.326 47.2455C131.031 47.7011 129.059 49.8132 129.525 52.3866C129.858 54.2185 130.974 55.2442 133.954 56.4563C136.066 57.3149 136.635 57.9276 136.032 58.6934C135.446 59.4382 133.343 59.4647 130.635 58.7614C129.941 58.5813 129.364 58.4465 129.353 58.462C129.341 58.4774 129.386 59.2606 129.453 60.2024L129.576 61.9147L130.316 62.0999C131.455 62.3842 133.608 62.6328 134.934 62.6328C137.392 62.6328 139.4 61.952 140.523 60.7376C141.637 59.5329 141.972 57.6566 141.323 56.2624C140.79 55.1156 139.669 54.3291 136.939 53.1853C135.433 52.5548 134.823 52.0559 134.823 51.4561C134.823 50.9619 135.151 50.6493 135.855 50.473C136.851 50.2234 138.846 50.5239 140.284 51.1402C140.579 51.2666 140.842 51.3484 140.868 51.3217C140.895 51.2952 140.872 50.5446 140.818 49.6536C140.745 48.4462 140.679 48.0085 140.561 47.9348C140.346 47.8013 138.704 47.4201 137.751 47.2825C137 47.1742 134.998 47.1525 134.326 47.2455ZM170.854 47.3417C169.899 47.5728 168.956 48.1231 168.174 48.9048C167.793 49.2855 167.46 49.5969 167.434 49.5969C167.408 49.5969 167.301 49.1573 167.197 48.6201C167.092 48.0829 166.974 47.5915 166.934 47.5282C166.865 47.4175 162.014 47.9453 161.881 48.078C161.851 48.1084 161.927 48.9225 162.051 49.887C162.251 51.4394 162.277 52.2526 162.277 56.971L162.277 62.3014H167.801V52.5125L168.126 51.9992C168.611 51.2349 169.214 50.8812 170.109 50.836C171.008 50.7905 171.498 51.0228 171.828 51.6508C172.045 52.0652 172.055 52.2876 172.086 57.192L172.118 62.3014H177.633L177.632 57.1367C177.631 51.8267 177.582 51.0548 177.179 49.9757C176.707 48.7141 175.308 47.6054 173.789 47.2886C173.003 47.1248 171.648 47.1494 170.854 47.3417ZM186.084 47.3229C182.885 48.0635 180.728 50.2 180.113 53.2386C179.89 54.3373 179.941 56.2137 180.221 57.2748C180.801 59.4663 182.531 61.3457 184.655 62.0923C186.113 62.6046 187.982 62.7668 189.564 62.5183C190.477 62.3748 191.854 61.975 191.982 61.8158C192.036 61.7487 192.117 60.9283 192.161 59.9927L192.242 58.2916L191.98 58.3705C191.836 58.4139 191.445 58.5309 191.111 58.6306C190.715 58.7485 190.08 58.8134 189.288 58.8166C188.198 58.8209 188.008 58.7912 187.448 58.5286C186.641 58.1503 185.992 57.4739 185.679 56.6864C185.475 56.171 185.431 55.8436 185.43 54.8444C185.429 53.7412 185.458 53.5655 185.745 52.9374C186.622 51.015 188.883 50.353 191.525 51.2448C191.873 51.3624 192.176 51.4413 192.197 51.4201C192.218 51.3987 192.199 50.6032 192.155 49.6522L192.075 47.9228L191.786 47.8117C190.349 47.2585 187.44 47.0092 186.084 47.3229ZM94.9931 47.5384C94.3077 47.8575 93.6095 48.6303 93.165 49.5617C92.9817 49.9456 92.7961 50.2598 92.7526 50.2598C92.7091 50.2598 92.5679 49.6355 92.4389 48.8724C92.3098 48.1094 92.1864 47.4678 92.1647 47.4466C92.1205 47.4036 87.2866 47.9358 87.2328 47.9896C87.2141 48.0083 87.3254 48.9822 87.48 50.1538C87.7459 52.1677 87.7613 52.5574 87.7613 57.2927V62.3014H93.1745L93.1763 57.9653C93.1781 53.6785 93.1809 53.6242 93.4258 53.1919C93.9914 52.1935 95.091 51.8071 96.516 52.1062C96.9867 52.205 97.4001 52.2575 97.4347 52.223C97.5253 52.1323 97.945 47.9305 97.8802 47.7618C97.8026 47.5595 96.7678 47.2767 96.1096 47.2781C95.7559 47.2787 95.3448 47.3746 94.9931 47.5384ZM50.3108 47.555C50.3108 47.5884 51.3076 49.2024 52.5259 51.1417L54.7411 54.6677L52.4332 58.3464C51.1638 60.3697 50.0896 62.0874 50.0458 62.1633C49.983 62.2723 50.604 62.3014 52.9985 62.3014H56.0305L57.282 59.483C57.9702 57.9329 58.5797 56.6801 58.6365 56.699C58.6932 56.7179 58.8033 56.9795 58.8812 57.2804C59.011 57.7816 60.9392 62.0248 61.1261 62.2203C61.1706 62.2669 62.5851 62.2918 64.2694 62.2755L67.3319 62.2461L65.4747 59.3186C64.4533 57.7084 63.3815 56.0123 63.0931 55.5496L62.5688 54.7081L64.7805 51.1445C65.997 49.1845 66.9923 47.5614 66.9923 47.5377C66.9923 47.5138 65.6416 47.5076 63.9908 47.5238L60.9895 47.5532L59.8874 50.1769C59.2812 51.62 58.7477 52.8006 58.7018 52.8006C58.6559 52.8006 58.561 52.562 58.4911 52.2705C58.4212 51.9788 57.9284 50.7982 57.3959 49.6467L56.4279 47.5532L53.3693 47.5238C51.6872 47.5076 50.3108 47.5217 50.3108 47.555ZM107.906 50.5621C108.416 50.8545 108.751 51.5925 108.751 52.4211V53.0994L107.84 53.1703C107.339 53.2093 106.337 53.2415 105.615 53.2419L104.302 53.2425L104.367 52.6862C104.448 52.0081 104.925 51.0984 105.363 50.7858C106.141 50.2319 107.172 50.1412 107.906 50.5621ZM78.1602 51.1487C78.4326 51.2876 78.7306 51.5752 78.9336 51.8944C79.4675 52.7348 79.6341 53.4606 79.636 54.9549C79.6382 56.7859 79.366 57.6757 78.5566 58.4834C78.1468 58.8925 77.8348 59.0963 77.4575 59.2016C76.8167 59.3802 75.7382 59.3083 75.0845 59.0432L74.6149 58.8527V56.107C74.6149 53.0501 74.6904 52.6318 75.3962 51.7762C76.0894 50.9356 77.2335 50.6759 78.1602 51.1487ZM195.905 56.9883C194.858 57.4641 194.19 58.5136 194.183 59.6962C194.169 62.2237 197.118 63.5557 199.056 61.8968C199.771 61.2843 200 60.7536 200 59.7053C200 58.7062 199.798 58.1978 199.157 57.5849C198.336 56.7989 196.902 56.5359 195.905 56.9883ZM145.668 57.7189C144.432 57.9204 143.397 58.1096 143.367 58.1393C143.338 58.169 143.386 58.3346 143.475 58.5074C143.809 59.1561 144.114 60.4 144.177 61.3617C144.255 62.5795 144.092 63.7042 143.653 64.9527C143.472 65.4692 143.313 65.9375 143.299 65.9934C143.279 66.0762 146.735 67.2713 146.997 67.2724C147.149 67.273 147.886 65.8171 148.243 64.8126C148.803 63.238 148.998 61.9206 148.939 60.122C148.877 58.2696 148.64 57.3956 148.19 57.369C148.038 57.36 146.903 57.5175 145.668 57.7189Z" fill="#32327C"/>
</svg>
