<svg width="310" height="310" viewBox="0 0 310 310" fill="none" xmlns="http://www.w3.org/2000/svg">
<path d="M34.4668 64.032L40.3716 67.8654L36.2769 74.1728L54.1255 85.76L49.2902 93.2081L31.4416 81.6209L27.3904 87.8612L21.4856 84.0278L34.4668 64.032Z" fill="white"/>
<path d="M73.3002 64.7359C71.3046 66.5048 69.0531 67.6632 66.5454 68.2111C64.0578 68.7414 61.5909 68.6118 59.145 67.8222C56.699 67.0327 54.5562 65.6002 52.7165 63.5249C50.8769 61.4495 49.7119 59.1503 49.2215 56.6273C48.7312 54.1042 48.9073 51.6496 49.7499 49.2635C50.5948 46.8398 52.015 44.7434 54.0105 42.9745C56.0061 41.2057 58.2477 40.0561 60.7353 39.5258C63.2053 38.9756 65.6533 39.1041 68.0794 39.9113C70.5253 40.7009 72.6681 42.1333 74.5078 44.2087C76.3474 46.284 77.5124 48.5832 78.0028 51.1063C78.5131 53.6117 78.3458 56.0762 77.5009 58.5C76.676 60.9061 75.2758 62.9847 73.3002 64.7359ZM67.8078 58.5397C69.1249 57.3723 69.7711 56.0511 69.7466 54.5762C69.7044 53.0813 69.0464 51.6154 67.7729 50.1787C66.4816 48.7219 65.1053 47.8929 63.6439 47.6916C62.1649 47.4703 60.7669 47.9434 59.4498 49.1108C58.1128 50.296 57.4654 51.636 57.5077 53.1309C57.5322 54.6058 58.1901 56.0716 59.4814 57.5284C60.755 58.9652 62.1313 59.7942 63.6103 60.0155C65.0716 60.2168 66.4708 59.7249 67.8078 58.5397Z" fill="white"/>
<path d="M103.83 23.8424C104.61 25.45 104.948 27.094 104.844 28.7744C104.728 30.4308 104.125 31.9977 103.033 33.4753C101.966 34.9413 100.401 36.1745 98.3372 37.1752L95.1699 38.711L99.0968 46.8091L91.1067 50.6837L78.75 25.2017L89.9074 19.7912C93.0267 18.2787 95.7981 17.9128 98.2216 18.6936C100.669 19.4627 102.539 21.179 103.83 23.8424ZM94.3831 31.313C96.0387 30.5101 96.4884 29.3289 95.7321 27.7693C94.9758 26.2096 93.7698 25.8312 92.1142 26.6341L89.8468 27.7336L92.1156 32.4125L94.3831 31.313Z" fill="white"/>
<path d="M153.355 33.9214C149.968 33.9644 147.159 33.2133 144.925 31.6682C142.719 30.0961 141.502 27.7781 141.277 24.714L150.716 24.5941C150.87 26.219 151.6 27.0231 152.907 27.0065C153.387 27.0004 153.785 26.8887 154.103 26.6713C154.446 26.4269 154.615 26.0647 154.609 25.5848C154.6 24.9182 154.234 24.3894 153.509 23.9986C152.783 23.5811 151.657 23.1154 150.131 22.6014C148.309 21.9845 146.795 21.377 145.587 20.779C144.406 20.1806 143.382 19.3002 142.513 18.1378C141.645 16.9754 141.213 15.4741 141.216 13.6339C141.193 11.794 141.64 10.2282 142.557 8.93649C143.5 7.61774 144.781 6.61472 146.399 5.92745C148.043 5.23984 149.892 4.883 151.945 4.85692C155.412 4.81289 158.168 5.57794 160.215 7.15207C162.289 8.72587 163.397 10.9653 163.541 13.8704L153.982 13.9918C153.945 13.1922 153.738 12.6215 153.36 12.2796C152.982 11.9377 152.527 11.7701 151.993 11.7769C151.62 11.7816 151.315 11.9188 151.079 12.1885C150.842 12.4316 150.726 12.7797 150.732 13.233C150.74 13.873 151.093 14.4018 151.792 14.8197C152.517 15.2105 153.657 15.6894 155.211 16.2564C157.006 16.9003 158.48 17.5216 159.635 18.1203C160.816 18.7187 161.84 19.5591 162.707 20.6415C163.574 21.7239 164.018 23.0917 164.039 24.7449C164.061 26.4781 163.654 28.0434 162.819 29.4408C161.983 30.8115 160.756 31.8939 159.14 32.6878C157.523 33.4817 155.595 33.8929 153.355 33.9214Z" fill="white"/>
<path d="M199.903 11.9062L198.306 18.7627L190.982 17.0567L186.154 37.782L177.506 35.7675L182.333 15.0423L175.087 13.3545L176.684 6.49805L199.903 11.9062Z" fill="white"/>
<path d="M212.446 48.6648C210.104 47.3897 208.249 45.6662 206.881 43.4944C205.536 41.3353 204.819 38.9713 204.73 36.4026C204.641 33.8339 205.259 31.3317 206.585 28.896C207.911 26.4603 209.677 24.5829 211.883 23.2638C214.089 21.9447 216.458 21.2756 218.988 21.2567C221.555 21.227 224.009 21.8497 226.351 23.1249C228.693 24.4 230.536 26.1171 231.881 28.2762C233.238 30.4119 233.95 32.7577 234.016 35.3137C234.105 37.8824 233.487 40.3846 232.16 42.8203C230.834 45.2561 229.068 47.1335 226.862 48.4526C224.68 49.7844 222.305 50.4651 219.739 50.4948C217.195 50.5372 214.764 49.9272 212.446 48.6648ZM216.405 41.3928C217.951 42.2344 219.413 42.3929 220.792 41.8683C222.183 41.3202 223.338 40.2031 224.256 38.5168C225.187 36.8071 225.498 35.2309 225.191 33.7882C224.896 32.3221 223.976 31.1682 222.43 30.3266C220.861 29.4723 219.381 29.3192 217.989 29.8672C216.61 30.3918 215.456 31.509 214.525 33.2187C213.607 34.9049 213.295 36.4811 213.59 37.9472C213.897 39.39 214.836 40.5385 216.405 41.3928Z" fill="white"/>
<path d="M241.901 70.572L245.224 59.5955L245.196 59.5674L238.077 66.8164L231.741 60.5943L251.584 40.3887L261.002 49.6376C262.639 51.2445 263.747 52.9128 264.329 54.6423C264.929 56.3529 265.019 57.9926 264.6 59.5616C264.218 61.1301 263.41 62.5423 262.177 63.798C260.85 65.1489 259.293 65.9738 257.504 66.2728C255.734 66.5906 253.921 66.2864 252.065 65.3604L248.865 77.4106L241.901 70.572ZM249.344 55.3437L251.855 57.81C252.464 58.408 253.052 58.7232 253.618 58.7558C254.202 58.7694 254.784 58.4812 255.363 57.8914C255.887 57.3587 256.136 56.7813 256.111 56.1593C256.106 55.5559 255.808 54.9646 255.219 54.3854L252.707 51.919L249.344 55.3437Z" fill="white"/>
<path d="M291.706 92.7227L269.549 93.8088L262.106 98.1171L257.658 90.4318L265.101 86.1234L277.078 67.4512L282.168 76.2443L275.743 85.1859L286.696 84.0681L291.706 92.7227Z" fill="white"/>
</svg>
